<?xml version="1.0" encoding="UTF-8"?>
<svg version="1.1" xmlns="http://www.w3.org/2000/svg" width="318" height="222">
<path d="M0 0 C104.94 0 209.88 0 318 0 C318 73.26 318 146.52 318 222 C213.06 222 108.12 222 0 222 C0 148.74 0 75.48 0 0 Z " fill="#FDFDFD" transform="translate(0,0)"/>
<path d="M0 0 C1.03769531 -0.02578125 2.07539062 -0.0515625 3.14453125 -0.078125 C6.57864233 0.29217709 8.45379035 1.16813609 11.1875 3.25 C11.1875 3.91 11.1875 4.57 11.1875 5.25 C11.950625 5.188125 12.71375 5.12625 13.5 5.0625 C16.1875 5.25 16.1875 5.25 17.84765625 6.42578125 C19.70197537 8.95046647 19.45147388 10.5103502 19.3125 13.625 C19.12379843 20.86949926 19.48455573 28.03295048 19.92041016 35.26513672 C19.96858887 36.14057129 20.01676758 37.01600586 20.06640625 37.91796875 C20.13710327 39.09782349 20.13710327 39.09782349 20.20922852 40.30151367 C20.1875 42.25 20.1875 42.25 19.1875 44.25 C20.1775 44.25 21.1675 44.25 22.1875 44.25 C21.3125 48.125 21.3125 48.125 20.1875 49.25 C18.52132885 49.29063832 16.85361905 49.292721 15.1875 49.25 C15.1875 50.24 15.1875 51.23 15.1875 52.25 C15.8475 52.25 16.5075 52.25 17.1875 52.25 C18.6481285 54.89738916 19.1875 56.14448334 19.1875 59.25 C20.22197266 59.39695312 20.22197266 59.39695312 21.27734375 59.546875 C31.5881516 61.18755224 42.29188001 64.56630722 48.73828125 73.3671875 C50.31087984 75.95286173 51.75266714 78.58531039 53.1875 81.25 C54.26839352 83.15355657 55.36048663 85.05043013 56.453125 86.94726562 C58.04223906 89.70863107 59.61456239 92.47939416 61.1875 95.25 C61.30343506 94.59402832 61.41937012 93.93805664 61.53881836 93.26220703 C62.06433919 90.29922551 62.59460918 87.33711346 63.125 84.375 C63.30740234 83.34246094 63.48980469 82.30992188 63.67773438 81.24609375 C63.85498047 80.25996094 64.03222656 79.27382812 64.21484375 78.2578125 C64.45835571 76.89100342 64.45835571 76.89100342 64.70678711 75.49658203 C65.1875 73.25 65.1875 73.25 66.1875 71.25 C67.1775 70.92 68.1675 70.59 69.1875 70.25 C70.46987059 66.40288823 70.40839678 62.78323608 70.515625 58.74609375 C71.47131496 53.77317215 73.78109622 49.67146421 76.1875 45.25 C75.0730249 45.27618408 73.9585498 45.30236816 72.81030273 45.3293457 C68.65263151 45.42024097 64.49504706 45.47739103 60.33666992 45.5246582 C58.541272 45.54971327 56.74597517 45.58376738 54.95092773 45.62719727 C52.36156199 45.68825027 49.77355105 45.71629891 47.18359375 45.73828125 C45.99098183 45.77699089 45.99098183 45.77699089 44.77427673 45.81648254 C38.99076116 45.81935547 35.35911575 44.30110492 31.1875 40.25 C28.06388405 35.56457607 28.353679 30.72636674 29.1875 25.25 C31.14344624 21.70409747 33.55327977 19.06711012 37.1875 17.25 C39.45761516 17.12700656 41.73137137 17.06964983 44.00463867 17.04125977 C44.70569733 17.03147598 45.40675598 17.0216922 46.12905884 17.01161194 C48.45450949 16.98164401 50.7799024 16.96026532 53.10546875 16.94140625 C54.29767753 16.93154851 54.29767753 16.93154851 55.51397133 16.92149162 C59.7235702 16.8888871 63.9331437 16.86444259 68.14282227 16.8449707 C71.62236539 16.82717814 75.10109492 16.79239422 78.58032227 16.74243164 C82.78431172 16.68213225 86.98754853 16.65148146 91.19194984 16.64179802 C92.7911282 16.63325604 94.39028713 16.6144686 95.98921776 16.5850544 C110.06714385 16.34008431 110.06714385 16.34008431 114.59887695 20.03881836 C117.59241895 23.20817772 119.07197458 26.2295255 119.5625 30.5625 C118.96611762 36.42692678 116.91005981 39.83367305 112.375 43.5625 C108.94297798 45.37945283 105.94863867 46.34732672 102.1875 47.25 C102.10113281 48.06984375 102.01476562 48.8896875 101.92578125 49.734375 C100.76382933 58.64622642 100.76382933 58.64622642 97.5625 62 C96.77875 62.4125 95.995 62.825 95.1875 63.25 C95.5175 62.610625 95.8475 61.97125 96.1875 61.3125 C97.26021225 59.48205433 97.26021225 59.48205433 97.1875 58.25 C95.5375 58.91 93.8875 59.57 92.1875 60.25 C92.8475 58.6 93.5075 56.95 94.1875 55.25 C92.8675 55.58 91.5475 55.91 90.1875 56.25 C90.991875 55.5075 91.79625 54.765 92.625 54 C95.50402886 51.35501953 95.50402886 51.35501953 96.1875 47.25 C93.2175 49.23 90.2475 51.21 87.1875 53.25 C86.5275 52.92 85.8675 52.59 85.1875 52.25 C85.5175 51.26 85.8475 50.27 86.1875 49.25 C84.5375 49.91 82.8875 50.57 81.1875 51.25 C81.5175 51.930625 81.8475 52.61125 82.1875 53.3125 C83.36057315 56.75840238 83.32930493 59.63397422 83.1875 63.25 C82.1975 63.745 82.1975 63.745 81.1875 64.25 C81.22875 63.198125 81.27 62.14625 81.3125 61.0625 C81.42133501 57.38261528 81.42133501 57.38261528 80.125 54.75 C78.8463072 51.34015253 79.49802153 48.76634022 80.1875 45.25 C74.44199139 50.17472167 73.61741862 56.52185368 73 63.625 C72.91814453 64.45644531 72.83628906 65.28789063 72.75195312 66.14453125 C72.55321437 68.17868087 72.36888416 70.21422949 72.1875 72.25 C72.87457031 72.31058594 73.56164062 72.37117188 74.26953125 72.43359375 C75.62111328 72.55927734 75.62111328 72.55927734 77 72.6875 C78.33998047 72.80931641 78.33998047 72.80931641 79.70703125 72.93359375 C82.1875 73.25 82.1875 73.25 85.1875 74.25 C85.1875 72.93 85.1875 71.61 85.1875 70.25 C87.76431635 68.28937887 90.2945894 66.6964553 93.1875 65.25 C92.13875002 67.87187494 91.53818687 69.04371361 89.0625 70.5 C88.44375 70.7475 87.825 70.995 87.1875 71.25 C87.1875 72.24 87.1875 73.23 87.1875 74.25 C88.1775 74.25 89.1675 74.25 90.1875 74.25 C90.25310966 83.25063663 90.24153919 92.24933252 90.1875 101.25 C90.1870166 102.22356445 90.1865332 103.19712891 90.18603516 104.20019531 C90.14560702 114.65375717 89.62234569 123.47383722 83.1875 132.25 C79.80208894 135.5601797 77.29490104 136.47216677 72.6875 136.75 C65.12575114 136.34603345 60.88005592 131.13621636 55.921875 125.95703125 C54.28465894 124.1699627 54.28465894 124.1699627 52.1875 123.25 C52.30867188 124.12736816 52.42984375 125.00473633 52.5546875 125.90869141 C53.00516754 129.18463426 53.45202381 132.46103014 53.89648438 135.73779297 C54.08905879 137.15205175 54.28304784 138.56611869 54.47851562 139.97998047 C54.76029577 142.02001122 55.03686988 144.06069282 55.3125 146.1015625 C55.48007813 147.32697754 55.64765625 148.55239258 55.8203125 149.81494141 C56.1875 153.25 56.1875 153.25 56.1875 159.25 C24.1775 159.25 -7.8325 159.25 -40.8125 159.25 C-41.1425 156.61 -41.4725 153.97 -41.8125 151.25 C-43.43471769 149.17799138 -43.43471769 149.17799138 -45.625 147.8125 C-50.26959495 144.61443931 -52.19595701 140.53455962 -53.8125 135.25 C-54.35479394 131.62548794 -54.3834586 128.09724358 -54.3125 124.4375 C-54.29328491 122.90488525 -54.29328491 122.90488525 -54.27368164 121.34130859 C-54.06131658 112.96895781 -53.29897235 104.68138453 -52.25 96.375 C-52.11851563 95.21766357 -51.98703125 94.06032715 -51.8515625 92.86791992 C-50.47030017 83.20820778 -46.62282532 76.18050377 -39.0625 69.9375 C-31.26713325 64.64564526 -23.47379818 61.80800748 -14.1484375 60.609375 C-11.85807028 60.4926915 -11.85807028 60.4926915 -10.8125 59.25 C-10.3903449 52.47588334 -10.0057173 45.53184698 -12.8125 39.25 C-13.616875 38.66863281 -14.42125 38.08726563 -15.25 37.48828125 C-20.37996782 33.00737948 -21.19857145 25.24983751 -22.19921875 18.73046875 C-22.3860518 15.36103132 -21.87572823 13.35943348 -20.1875 10.4375 C-17.56575994 8.02273941 -15.01446002 6.78427251 -11.8125 5.25 C-10.44163085 3.95529025 -9.09909163 2.62849103 -7.8125 1.25 C-5.13594199 -0.08827901 -2.98815948 0.04421444 0 0 Z " fill="#ABD665" transform="translate(78.8125,38.75)"/>
<path d="M0 0 C0.495 0.99 0.495 0.99 1 2 C4.19202044 3.64749442 7.3083531 4.23566351 10.8125 4.8125 C16.98670839 5.98283502 21.75147799 8.54067905 26 13.1875 C27 15 27 15 27 17 C28.485 17.495 28.485 17.495 30 18 C32.03259342 22.06518684 31.69329029 26.60176641 31 31 C28.4940999 36.2738112 25.27381056 41.00234335 21 45 C22.09830303 47.34637464 23.3011622 49.45855692 24.7265625 51.62890625 C29.1735658 58.50071587 31.57961278 63.78601355 30 72 C28.53259827 76.75081443 26.95446022 79.37592985 22.75 82.125 C19.66798199 84.72955683 19.66798199 84.72955683 19.79296875 88.2421875 C19.88897482 90.73834526 19.9866191 93.23444058 20.0859375 95.73046875 C20 99 20 99 18.0625 102.3125 C14.54916522 104.24841917 11.85474228 104.67560797 7.890625 104.859375 C5.98837483 104.79405549 5.98837483 104.79405549 5 106 C-0.4370738 106.85223974 -4.94619775 106.52200912 -9.6875 103.625 C-16.91282012 98.2123927 -21.42654714 90.14747253 -25 82 C-25 81.01 -25 80.02 -25 79 C-27.6802232 78.10659227 -29.3640125 77.85647909 -32.125 77.7890625 C-32.91390625 77.76070313 -33.7028125 77.73234375 -34.515625 77.703125 C-36.17164796 77.65104881 -37.8279347 77.60677502 -39.484375 77.5703125 C-40.27328125 77.539375 -41.0621875 77.5084375 -41.875 77.4765625 C-42.59429687 77.45674316 -43.31359375 77.43692383 -44.0546875 77.41650391 C-46.56499018 76.87903197 -47.46920612 76.03810559 -49 74 C-49.39635158 70.36677715 -49.64642053 67.99901354 -47.625 64.875 C-47.08875 64.25625 -46.5525 63.6375 -46 63 C-45.690625 62.21625 -45.38125 61.4325 -45.0625 60.625 C-43.41555396 56.5560745 -41.10101748 53.10101748 -38 50 C-41.96 49.34 -45.92 48.68 -50 48 C-50 49.65 -50 51.3 -50 53 C-53 49.375 -53 49.375 -53 46 C-46.59765348 45.6851305 -41.57982621 46.46109539 -35.48046875 48.44140625 C-32.84302488 49.0353503 -31.4989421 48.96537498 -29 48 C-28.505 47.505 -28.01 47.01 -27.5 46.5 C-25.72746073 44.72746073 -24.43379708 44.41962019 -22 44 C-22.721875 43.525625 -23.44375 43.05125 -24.1875 42.5625 C-27.87816363 39.19989536 -29.78174706 35.42093919 -32 31 C-32.36996094 30.34902344 -32.73992187 29.69804688 -33.12109375 29.02734375 C-34.79145847 25.17436914 -34.5437481 21.10463505 -34 17 C-32.25 13.875 -32.25 13.875 -30 12 C-28.68 12 -27.36 12 -26 12 C-25.79375 11.4225 -25.5875 10.845 -25.375 10.25 C-23.50720276 7.19360452 -21.18539868 5.51354098 -18 4 C-14.8932722 3.2740053 -11.80199944 2.99321527 -8.625 2.75 C-7.79355469 2.67265625 -6.96210938 2.5953125 -6.10546875 2.515625 C-4.07164815 2.32860701 -2.03595073 2.16219314 0 2 C0 1.34 0 0.68 0 0 Z " fill="#8887ED" transform="translate(226,89)"/>
<path d="M0 0 C2.1875 0.3125 2.1875 0.3125 4 1 C0.25 4 0.25 4 -2 4 C-1.68522098 6.93793754 -0.93578058 8.07200359 1.0625 10.3125 C4.67755709 12.38923492 6.14118696 11.91388243 10.06640625 11.171875 C13.08179841 10.90384014 14.72781527 12.14093977 17 14 C18.60725635 17.21451269 18.05748185 20.43612536 18 24 C18.7425 24.268125 19.485 24.53625 20.25 24.8125 C22.87046481 25.94406435 24.7434989 27.28817158 27 29 C27.66 29 28.32 29 29 29 C30.2792103 27.2378865 30.2792103 27.2378865 31.49609375 24.94921875 C31.97240234 24.10552734 32.44871094 23.26183594 32.93945312 22.39257812 C33.43380859 21.49990234 33.92816406 20.60722656 34.4375 19.6875 C35.41092043 17.93892481 36.38862933 16.19272848 37.37109375 14.44921875 C37.80349365 13.66893311 38.23589355 12.88864746 38.68139648 12.0847168 C39.96890475 10.04916169 41.14598632 8.53321286 43 7 C45.875 6.5 45.875 6.5 49 7 C52.97846174 10.25510506 55.64766105 13.36155482 56.3359375 18.515625 C56.42600821 24.82057454 55.94271702 29.8864155 52 35 C50.9275 35.70125 49.855 36.4025 48.75 37.125 C45.66798199 39.72955683 45.66798199 39.72955683 45.79296875 43.2421875 C45.88897482 45.73834526 45.9866191 48.23444058 46.0859375 50.73046875 C46 54 46 54 44.0625 57.3125 C40.54916522 59.24841917 37.85474228 59.67560797 33.890625 59.859375 C31.98837483 59.79405549 31.98837483 59.79405549 31 61 C25.5629262 61.85223974 21.05380225 61.52200912 16.3125 58.625 C9.08717988 53.2123927 4.57345286 45.14747253 1 37 C1 36.01 1 35.02 1 34 C-1.6802232 33.10659227 -3.3640125 32.85647909 -6.125 32.7890625 C-6.91390625 32.76070312 -7.7028125 32.73234375 -8.515625 32.703125 C-10.17164796 32.65104881 -11.8279347 32.60677502 -13.484375 32.5703125 C-14.66773438 32.52390625 -14.66773438 32.52390625 -15.875 32.4765625 C-16.59429687 32.45674316 -17.31359375 32.43692383 -18.0546875 32.41650391 C-20.56499018 31.87903197 -21.46920612 31.03810559 -23 29 C-23.39635158 25.36677715 -23.64642053 22.99901354 -21.625 19.875 C-21.08875 19.25625 -20.5525 18.6375 -20 18 C-19.690625 17.21625 -19.38125 16.4325 -19.0625 15.625 C-17.41555396 11.5560745 -15.10101748 8.10101748 -12 5 C-17.94 4.01 -17.94 4.01 -24 3 C-24 4.65 -24 6.3 -24 8 C-27 4.375 -27 4.375 -27 1 C-20.59765348 0.6851305 -15.57982621 1.46109539 -9.48046875 3.44140625 C-6.8421787 4.03554086 -5.49729804 3.97576546 -3 3 C-2.505 2.46375 -2.01 1.9275 -1.5 1.375 C-1.005 0.92125 -0.51 0.4675 0 0 Z " fill="#9FC468" transform="translate(200,134)"/>
<path d="M0 0 C0.99810448 -0.00744736 0.99810448 -0.00744736 2.01637268 -0.01504517 C4.21616655 -0.02964196 6.41588832 -0.03646445 8.61572266 -0.04199219 C10.14645387 -0.0477455 11.67718507 -0.05350321 13.20791626 -0.05926514 C16.41742284 -0.06976792 19.62690443 -0.07561537 22.83642578 -0.07910156 C26.94446772 -0.08458613 31.0521782 -0.10861613 35.1601162 -0.13707352 C38.3223059 -0.15571735 41.48441601 -0.16090641 44.64665604 -0.16243744 C46.16089313 -0.16546035 47.67512894 -0.17347671 49.18931198 -0.18662262 C51.31005681 -0.20372099 53.42999503 -0.20179423 55.55078125 -0.1953125 C56.75640717 -0.19895813 57.96203308 -0.20260376 59.20419312 -0.20635986 C63.79142275 0.32034684 66.33449257 2.20654753 69.71728516 5.22363281 C72.17631611 9.50416818 72.19041997 13.33622407 71.40478516 18.16113281 C69.06788363 22.31562442 66.8582034 23.73237453 62.40478516 25.16113281 C59.22438049 25.42182922 59.22438049 25.42182922 55.59838867 25.43579102 C54.93429993 25.44090195 54.27021118 25.44601288 53.58599854 25.45127869 C51.40180319 25.46512117 49.21792527 25.46422205 47.03369141 25.46191406 C45.50821313 25.46580386 43.98273594 25.47013912 42.45726013 25.47489929 C39.26387009 25.48234994 36.07059062 25.48207859 32.87719727 25.47680664 C28.79394234 25.47101263 24.7111411 25.48794662 20.62796116 25.51115131 C17.47858555 25.52591457 14.32931856 25.52675686 11.17991447 25.52364159 C9.67488646 25.52415347 8.16985216 25.52936618 6.66485786 25.53945351 C4.55646776 25.55185188 2.44895326 25.54500705 0.34057617 25.53344727 C-0.85679672 25.53407669 -2.05416962 25.53470612 -3.28782654 25.53535461 C-7.01561087 25.11356617 -9.40964837 24.1180359 -12.59521484 22.16113281 C-15.54976752 17.82778888 -16.16130774 14.35031772 -15.59521484 9.16113281 C-14.0752938 5.97653635 -12.31225526 3.42533316 -9.59521484 1.16113281 C-6.19827561 0.02881973 -3.58224443 0.02031468 0 0 Z " fill="#FAFAFB" transform="translate(124.59521484375,56.8388671875)"/>
<path d="M0 0 C1.49950195 -0.04350586 1.49950195 -0.04350586 3.02929688 -0.08789062 C10.60185264 -0.15185633 18.08310799 0.78603845 23.88305664 6.0925293 C29.13158338 11.89995366 30.38534302 16.46778659 30.26171875 24.265625 C29.70967319 29.45352306 27.64632437 33.35051646 24.25 37.25 C22.11152561 40.61045976 22.17979679 44.40233104 21.9375 48.3125 C21.2775 48.044375 20.6175 47.77625 19.9375 47.5 C17.14017712 46.31191545 17.14017712 46.31191545 14.9296875 45.828125 C12.65792339 45.20779089 10.90817348 44.61331737 8.9375 43.3125 C7.87428389 41.09603737 7.33833929 39.07937235 6.8984375 36.6640625 C5.49285153 33.2243765 3.03716825 31.22024898 -0.0625 29.3125 C-3.51965188 28.5604514 -3.51965188 28.5604514 -7.26123047 28.65307617 C-7.95461014 28.64259247 -8.64798981 28.63210876 -9.36238098 28.62130737 C-11.63527956 28.59269658 -13.90664215 28.59883148 -16.1796875 28.60546875 C-17.76296891 28.59234506 -19.3462336 28.57703876 -20.92947388 28.55964661 C-25.08220281 28.51986146 -29.23449312 28.50961042 -33.38739014 28.50561523 C-37.63079072 28.49627145 -41.8739349 28.45885018 -46.1171875 28.42382812 C-54.43229648 28.35931846 -62.74715249 28.32602423 -71.0625 28.3125 C-71.0625 27.9825 -71.0625 27.6525 -71.0625 27.3125 C-56.2125 27.3125 -41.3625 27.3125 -26.0625 27.3125 C-26.0625 23.0225 -26.0625 18.7325 -26.0625 14.3125 C-19.54360125 3.137245 -12.54356429 0.11811266 0 0 Z " fill="#C9C6F6" transform="translate(189.0625,27.6875)"/>
<path d="M0 0 C0 1.65 0 3.3 0 5 C-0.99 5.33 -1.98 5.66 -3 6 C-3.33 6.66 -3.66 7.32 -4 8 C-2.68 8 -1.36 8 0 8 C0 9.32 0 10.64 0 12 C-1.32 12.33 -2.64 12.66 -4 13 C-4 12.34 -4 11.68 -4 11 C-4.66 11 -5.32 11 -6 11 C-5.71125 12.258125 -5.4225 13.51625 -5.125 14.8125 C-4.88136719 15.87404297 -4.88136719 15.87404297 -4.6328125 16.95703125 C-4.01992277 19.27742974 -4.01992277 19.27742974 -2 22 C-2 19.57202689 -2.50085685 17.37092995 -3 15 C-0.525 15.99 -0.525 15.99 2 17 C2.19466332 18.79090253 2.38051213 20.58276505 2.5625 22.375 C2.71912109 23.87160156 2.71912109 23.87160156 2.87890625 25.3984375 C3 28 3 28 2 30 C-1.16015625 30.4140625 -1.16015625 30.4140625 -5.0625 30.625 C-6.35285156 30.69976562 -7.64320312 30.77453125 -8.97265625 30.8515625 C-9.97167969 30.90054688 -10.97070312 30.94953125 -12 31 C-12 31.33 -12 31.66 -12 32 C-11.01 31.505 -11.01 31.505 -10 31 C-7.62216895 31.08838461 -5.24654854 31.24346421 -2.875 31.4375 C-1.59367187 31.53933594 -0.31234375 31.64117187 1.0078125 31.74609375 C1.99523437 31.82988281 2.98265625 31.91367188 4 32 C3.67 32.99 3.34 33.98 3 35 C1.71802734 35.09087891 1.71802734 35.09087891 0.41015625 35.18359375 C-0.69457031 35.26738281 -1.79929687 35.35117188 -2.9375 35.4375 C-4.03964844 35.51871094 -5.14179687 35.59992188 -6.27734375 35.68359375 C-8.91109903 35.70418084 -8.91109903 35.70418084 -10 37 C-6.535 36.505 -6.535 36.505 -3 36 C-3 36.66 -3 37.32 -3 38 C-6.96 39.98 -6.96 39.98 -11 42 C-7 40 -7 40 -3 40 C-3 40.99 -3 41.98 -3 43 C-3.99 43.66 -4.98 44.32 -6 45 C-3.03 44.505 -3.03 44.505 0 44 C0.2295711 47.36704285 0.33943529 49.41370268 -1.375 52.375 C-1.91125 52.91125 -2.4475 53.4475 -3 54 C-3.66 54 -4.32 54 -5 54 C-4.67 52.35 -4.34 50.7 -4 49 C-4.99 49.495 -4.99 49.495 -6 50 C-6.65604152 52.02503889 -6.65604152 52.02503889 -7.0703125 54.47265625 C-7.24433594 55.37177734 -7.41835937 56.27089844 -7.59765625 57.19726562 C-7.85869141 58.61555664 -7.85869141 58.61555664 -8.125 60.0625 C-8.39763672 61.4865918 -8.39763672 61.4865918 -8.67578125 62.93945312 C-9.12493737 65.2916128 -9.56596193 67.64501178 -10 70 C-11.58109965 69.8595796 -13.1617456 69.71404565 -14.7421875 69.56640625 C-15.62245605 69.48592041 -16.50272461 69.40543457 -17.40966797 69.32250977 C-20.7719895 68.90388331 -23.78339122 68.04889417 -27 67 C-26.690625 66.2575 -26.38125 65.515 -26.0625 64.75 C-24.52972811 59.34021686 -24 53.63259213 -24 48 C-24.99 48.495 -24.99 48.495 -26 49 C-25.835 48.360625 -25.67 47.72125 -25.5 47.0625 C-24.34372584 39.9803208 -24.29948405 31.7385516 -27 25 C-28.96992187 23.81176611 -28.96992187 23.81176611 -31 23 C-32.60725635 19.78548731 -32.05748185 16.56387464 -32 13 C-29.69 13.33 -27.38 13.66 -25 14 C-24.34 9.05 -23.68 4.1 -23 -1 C-6.51453488 -3.61918605 -6.51453488 -3.61918605 0 0 Z " fill="#F4F4F5" transform="translate(95,52)"/>
<path d="M0 0 C0.75506836 0.00676758 1.51013672 0.01353516 2.28808594 0.02050781 C20.79486557 0.35642656 20.79486557 0.35642656 27.125 6.25 C29.6268939 10.00284085 29.42430669 12.14806957 29.4375 16.625 C29.45425781 17.93210937 29.47101563 19.23921875 29.48828125 20.5859375 C29.09742102 24.52816223 28.6631593 26.24142828 26.125 29.25 C20.8939635 33.04088695 17.11149946 33.82860568 10.75 33.5625 C10.00194092 33.54413086 9.25388184 33.52576172 8.4831543 33.50683594 C6.36200979 33.44501248 4.2445268 33.35213949 2.125 33.25 C1.16980469 33.21777344 0.21460938 33.18554688 -0.76953125 33.15234375 C-6.67551099 32.75995327 -10.50544046 30.80052829 -14.51171875 26.48828125 C-16.2664968 23.60722732 -16.30830455 21.60636206 -16.3125 18.25 C-16.33183594 17.21875 -16.35117188 16.1875 -16.37109375 15.125 C-15.76788827 11.62925803 -14.56775174 10.46818757 -11.875 8.25 C-11.75125 9.384375 -11.6275 10.51875 -11.5 11.6875 C-11.190625 13.4509375 -11.190625 13.4509375 -10.875 15.25 C-10.215 15.58 -9.555 15.91 -8.875 16.25 C-8.545 12.95 -8.215 9.65 -7.875 6.25 C-8.535 6.25 -9.195 6.25 -9.875 6.25 C-10.205 4.93 -10.535 3.61 -10.875 2.25 C-7.16334197 -0.22443868 -4.29455683 -0.05464772 0 0 Z " fill="#11132E" transform="translate(214.875,95.75)"/>
<path d="M0 0 C4.40856269 1.21938968 6.71497541 3.79490696 9.0546875 7.65625 C11.02132854 12.45972722 10.65730199 18.14741037 9.3203125 23.09765625 C6.45281418 29.68275196 1.53251121 33.39242339 -5.0390625 35.98828125 C-12.40666488 38.2095311 -12.40666488 38.2095311 -16.1640625 37.30859375 C-17.8125 36.375 -17.8125 36.375 -20.0625 33.8125 C-21.15568154 27.707359 -17.98121737 23.45253692 -14.9375 18.4375 C-14.463125 17.62539062 -13.98875 16.81328125 -13.5 15.9765625 C-4.77842591 1.26774565 -4.77842591 1.26774565 0 0 Z " fill="#11142C" transform="translate(246.0625,140.1875)"/>
<path d="M0 0 C0.66 0 1.32 0 2 0 C2.33 0.99 2.66 1.98 3 3 C5.10584438 3.80563638 5.10584438 3.80563638 7.5625 4.1875 C8.38878906 4.34605469 9.21507812 4.50460938 10.06640625 4.66796875 C10.70449219 4.77753906 11.34257812 4.88710937 12 5 C12 5.66 12 6.32 12 7 C12.33 6.34 12.66 5.68 13 5 C20.92 5.33 28.84 5.66 37 6 C37 11.85810034 36.14695501 14.29501633 33.25 19 C32.72792969 19.88558594 32.72792969 19.88558594 32.1953125 20.7890625 C29.92168855 24.61211906 27.49282496 28.31690727 25 32 C20.81785215 30.52394782 17.33133919 28.96119039 14 26 C13.26383744 23.40029452 12.88039115 20.93005505 12.6171875 18.2421875 C12.21081365 15.86756425 12.21081365 15.86756425 10.18359375 14.6484375 C7.75169983 13.74236892 7.75169983 13.74236892 4.1875 14.75 C1.40015602 15.225888 0.37812572 15.23000868 -2.07421875 13.73828125 C-3.81037906 12.22750483 -5.43541214 10.68682128 -7 9 C-5.66757255 5.00271766 -3.43722554 4.26710621 0 2 C0 1.34 0 0.68 0 0 Z " fill="#8B89EF" transform="translate(204,132)"/>
<path d="M0 0 C-0.33 0.99 -0.66 1.98 -1 3 C-2.28197266 3.09087891 -2.28197266 3.09087891 -3.58984375 3.18359375 C-4.69457031 3.26738281 -5.79929687 3.35117188 -6.9375 3.4375 C-8.03964844 3.51871094 -9.14179687 3.59992188 -10.27734375 3.68359375 C-12.91109903 3.70418084 -12.91109903 3.70418084 -14 5 C-10.535 4.505 -10.535 4.505 -7 4 C-7 4.66 -7 5.32 -7 6 C-10.96 7.98 -10.96 7.98 -15 10 C-11 8 -11 8 -7 8 C-7 8.99 -7 9.98 -7 11 C-7.99 11.66 -8.98 12.32 -10 13 C-8.02 12.67 -6.04 12.34 -4 12 C-3.7704289 15.36704285 -3.66056471 17.41370268 -5.375 20.375 C-5.91125 20.91125 -6.4475 21.4475 -7 22 C-7.66 22 -8.32 22 -9 22 C-8.67 20.35 -8.34 18.7 -8 17 C-8.66 17.33 -9.32 17.66 -10 18 C-10.65604152 20.02503889 -10.65604152 20.02503889 -11.0703125 22.47265625 C-11.33134766 23.82133789 -11.33134766 23.82133789 -11.59765625 25.19726562 C-11.85869141 26.61555664 -11.85869141 26.61555664 -12.125 28.0625 C-12.30675781 29.01189453 -12.48851563 29.96128906 -12.67578125 30.93945312 C-13.12493737 33.2916128 -13.56596193 35.64501178 -14 38 C-15.58109965 37.8595796 -17.1617456 37.71404565 -18.7421875 37.56640625 C-19.62245605 37.48592041 -20.50272461 37.40543457 -21.40966797 37.32250977 C-24.7719895 36.90388331 -27.78339122 36.04889417 -31 35 C-30.690625 34.2575 -30.38125 33.515 -30.0625 32.75 C-29.11211393 29.39569624 -28.80877934 26.75948323 -28.625 23.3125 C-28.05176952 15.97878947 -26.98094012 9.40095517 -22.00390625 3.72265625 C-15.02447633 -2.06488416 -8.60782455 -1.47598144 0 0 Z " fill="#FAFBFA" transform="translate(99,84)"/>
<path d="M0 0 C0.70105865 -0.00978378 1.40211731 -0.01956757 2.12442017 -0.02964783 C4.44987082 -0.05961575 6.77526373 -0.08099444 9.10083008 -0.09985352 C10.29303885 -0.10971126 10.29303885 -0.10971126 11.50933266 -0.11976814 C15.71893153 -0.15237266 19.92850503 -0.17681718 24.13818359 -0.19628906 C27.61772672 -0.21408163 31.09645625 -0.24886554 34.57568359 -0.29882812 C38.77967305 -0.35912752 42.98290986 -0.38977831 47.18731117 -0.39946175 C48.78648952 -0.40800373 50.38564845 -0.42679117 51.98457909 -0.45620537 C66.06250518 -0.70117546 66.06250518 -0.70117546 70.59423828 2.99755859 C73.58778028 6.16691796 75.06733591 9.18826573 75.55786133 13.52124023 C74.96147894 19.38566702 72.90542113 22.79241328 68.37036133 26.52124023 C64.93833931 28.33819307 61.944 29.30606695 58.18286133 30.20874023 C58.05331055 31.43850586 58.05331055 31.43850586 57.92114258 32.69311523 C56.75919066 41.60496665 56.75919066 41.60496665 53.55786133 44.95874023 C52.77411133 45.37124023 51.99036133 45.78374023 51.18286133 46.20874023 C51.51286133 45.56936523 51.84286133 44.92999023 52.18286133 44.27124023 C53.25557358 42.44079457 53.25557358 42.44079457 53.18286133 41.20874023 C51.53286133 41.86874023 49.88286133 42.52874023 48.18286133 43.20874023 C48.84286133 41.55874023 49.50286133 39.90874023 50.18286133 38.20874023 C48.20286133 38.70374023 48.20286133 38.70374023 46.18286133 39.20874023 C46.98723633 38.46624023 47.79161133 37.72374023 48.62036133 36.95874023 C51.49939018 34.31375976 51.49939018 34.31375976 52.18286133 30.20874023 C49.21286133 32.18874023 46.24286133 34.16874023 43.18286133 36.20874023 C42.19286133 35.71374023 42.19286133 35.71374023 41.18286133 35.20874023 C41.51286133 34.21874023 41.84286133 33.22874023 42.18286133 32.20874023 C40.53286133 32.86874023 38.88286133 33.52874023 37.18286133 34.20874023 C37.67786133 35.22967773 37.67786133 35.22967773 38.18286133 36.27124023 C39.35593448 39.71714261 39.32466626 42.59271446 39.18286133 46.20874023 C38.19286133 46.70374023 38.19286133 46.70374023 37.18286133 47.20874023 C37.22411133 46.15686523 37.26536133 45.10499023 37.30786133 44.02124023 C37.41669634 40.34135552 37.41669634 40.34135552 36.12036133 37.70874023 C34.84166853 34.29889277 35.49338285 31.72508046 36.18286133 28.20874023 C30.43735271 33.1334619 29.61277995 39.48059392 28.99536133 46.58374023 C28.91350586 47.41518555 28.83165039 48.24663086 28.74731445 49.10327148 C28.5485757 51.13742111 28.36424549 53.17296973 28.18286133 55.20874023 C31.48286133 55.53874023 34.78286133 55.86874023 38.18286133 56.20874023 C38.18286133 56.53874023 38.18286133 56.86874023 38.18286133 57.20874023 C36.76662917 57.2632107 35.34977942 57.30174531 33.93286133 57.33374023 C33.14395508 57.35694336 32.35504883 57.38014648 31.54223633 57.40405273 C28.97554192 57.19157803 27.39125463 56.49528129 25.18286133 55.20874023 C25.38720212 52.57975874 25.6206991 49.95850771 25.87036133 47.33374023 C25.92385742 46.60670898 25.97735352 45.87967773 26.0324707 45.13061523 C26.67729118 38.73848183 29.05853601 33.77587875 32.18286133 28.20874023 C31.06838623 28.23492432 29.95391113 28.2611084 28.80566406 28.28808594 C24.64799283 28.3789812 20.49040839 28.43613126 16.33203125 28.48339844 C14.53663333 28.50845351 12.7413365 28.54250761 10.94628906 28.5859375 C8.35692332 28.64699051 5.76891238 28.67503915 3.17895508 28.69702148 C1.98634315 28.73573112 1.98634315 28.73573112 0.76963806 28.77522278 C-5.01387751 28.77809571 -8.64552292 27.25984515 -12.81713867 23.20874023 C-15.94075462 18.52331631 -15.65095967 13.68510697 -14.81713867 8.20874023 C-11.14624009 1.553829 -7.35988632 0.09191513 0 0 Z M-12.81713867 7.20874023 C-14.38904533 11.92446022 -14.31969002 15.75692522 -12.69213867 20.45874023 C-10.37847832 23.85210875 -8.60058574 24.66538944 -4.81713867 26.20874023 C-1.47100647 26.65774606 -1.47100647 26.65774606 2.1027832 26.59692383 C2.76701797 26.60218079 3.43125275 26.60743774 4.11561584 26.612854 C6.29452568 26.62597513 8.47269506 26.6173447 10.65161133 26.60717773 C12.17566059 26.60920075 13.69970891 26.61211409 15.22375488 26.61587524 C18.41122696 26.62028789 21.5984461 26.61390195 24.78588867 26.59985352 C28.86129645 26.58276201 32.93611144 26.59260892 37.0114975 26.61057091 C40.1566002 26.62143757 43.30156352 26.61794926 46.44667053 26.61018753 C47.94889904 26.60819348 49.45114041 26.61061676 50.95335388 26.61762619 C53.05688759 26.62528859 55.15947575 26.61357129 57.26293945 26.59692383 C58.45729614 26.59453705 59.65165283 26.59215027 60.88220215 26.58969116 C65.42089967 26.06585003 68.82003764 24.60628554 72.02270508 21.32202148 C74.16642262 17.41713532 74.01437199 13.51147793 73.18286133 9.20874023 C70.9080884 5.23146429 68.55124091 2.66486676 64.18286133 1.20874023 C61.98629387 1.10404754 59.7866721 1.06007795 57.58764648 1.04760742 C56.9222435 1.04264252 56.25684052 1.03767761 55.5712738 1.03256226 C53.37147993 1.01796546 51.17175816 1.01114297 48.97192383 1.00561523 C47.44119261 0.99986193 45.91046141 0.99410421 44.37973022 0.98834229 C41.17022364 0.9778395 37.96074205 0.97199205 34.7512207 0.96850586 C30.64317876 0.96302129 26.53546829 0.9389913 22.42753029 0.91053391 C19.26534058 0.89189007 16.10323047 0.88670101 12.94099045 0.88516998 C11.42675336 0.88214707 9.91251755 0.87413071 8.3983345 0.8609848 C6.27758967 0.84388643 4.15765146 0.84581319 2.03686523 0.85229492 C0.83123932 0.84864929 -0.3743866 0.84500366 -1.61654663 0.84124756 C-6.35007092 1.38475185 -9.78101572 3.56539269 -12.81713867 7.20874023 Z " fill="#A9ACA7" transform="translate(122.817138671875,55.791259765625)"/>
<path d="M0 0 C0.495 0.99 0.495 0.99 1 2 C4.19202044 3.64749442 7.3083531 4.23566351 10.8125 4.8125 C16.98670839 5.98283502 21.75147799 8.54067905 26 13.1875 C27 15 27 15 27 17 C27.99 17.33 28.98 17.66 30 18 C31.9687409 21.9374818 31.46471449 26.70893502 31 31 C29.92640635 33.47067185 28.78251861 34.93896286 27 37 C25.0625 36.6875 25.0625 36.6875 23 36 C22.67 35.01 22.34 34.02 22 33 C21.401875 33.165 20.80375 33.33 20.1875 33.5 C18 34 18 34 15 34 C15.66 33.01 16.32 32.02 17 31 C17.43353298 27.51232012 17.43353298 27.51232012 17.4375 23.625 C17.47746094 22.31789063 17.51742187 21.01078125 17.55859375 19.6640625 C16.86760768 15.13158043 15.55082538 13.80194255 12 11 C7.60418577 8.27040869 3.06220245 8.27262779 -2 8 C-2.66918457 7.96068359 -3.33836914 7.92136719 -4.02783203 7.88085938 C-6.26848498 7.76321886 -8.50722079 7.68921045 -10.75 7.625 C-11.47082764 7.58681152 -12.19165527 7.54862305 -12.93432617 7.50927734 C-16.85673514 7.44853508 -19.37620745 7.9006535 -22.390625 10.3359375 C-25.07573519 12.91217087 -25.07573519 12.91217087 -27 16 C-27.99 16 -28.98 16 -30 16 C-30.33 20.95 -30.66 25.9 -31 31 C-33 30 -33 30 -34 27 C-34.5065501 22.100581 -34.69216255 18.23600455 -32.25 13.875 C-30 12 -30 12 -26 12 C-25.690625 11.13375 -25.690625 11.13375 -25.375 10.25 C-23.50720276 7.19360452 -21.18539868 5.51354098 -18 4 C-14.8932722 3.2740053 -11.80199944 2.99321527 -8.625 2.75 C-7.37783203 2.63398437 -7.37783203 2.63398437 -6.10546875 2.515625 C-4.07164815 2.32860701 -2.03595073 2.16219314 0 2 C0 1.34 0 0.68 0 0 Z " fill="#8785E0" transform="translate(226,89)"/>
<path d="M0 0 C1.03769531 -0.02578125 2.07539062 -0.0515625 3.14453125 -0.078125 C6.57864233 0.29217709 8.45379035 1.16813609 11.1875 3.25 C11.1875 3.91 11.1875 4.57 11.1875 5.25 C11.950625 5.188125 12.71375 5.12625 13.5 5.0625 C16.1875 5.25 16.1875 5.25 18.0625 6.4375 C19.1875 8.25 19.1875 8.25 18.875 10.9375 C18.648125 11.700625 18.42125 12.46375 18.1875 13.25 C12.45416667 12.31666667 12.45416667 12.31666667 9.9375 11.6875 C6.48379495 11.13804692 3.35645925 11.39466698 -0.125 11.6875 C-1.37925781 11.78933594 -2.63351563 11.89117187 -3.92578125 11.99609375 C-4.87839844 12.07988281 -5.83101562 12.16367187 -6.8125 12.25 C-6.80089844 12.81847656 -6.78929688 13.38695312 -6.77734375 13.97265625 C-6.72026806 18.85670484 -6.99293228 23.43503965 -7.8125 28.25 C-10.4525 27.92 -13.0925 27.59 -15.8125 27.25 C-16.1425 27.91 -16.4725 28.57 -16.8125 29.25 C-17.4725 29.25 -18.1325 29.25 -18.8125 29.25 C-21.24021689 23.58532726 -22.52095116 19.42364578 -21.8125 13.25 C-19.26547022 8.84167924 -16.30222432 7.40132624 -11.8125 5.25 C-10.44163085 3.95529025 -9.09909163 2.62849103 -7.8125 1.25 C-5.13594199 -0.08827901 -2.98815948 0.04421444 0 0 Z " fill="#181A30" transform="translate(78.8125,38.75)"/>
<path d="M0 0 C4.56944444 2.13888889 4.56944444 2.13888889 6 5 C6.51571681 9.37936569 6.83341277 12.85046515 4.1875 16.5 C0.21039335 19.22715885 -3.27190706 19.57063191 -8 19 C-11.01704172 16.43230492 -12.56255124 14.82448141 -13.48046875 10.99609375 C-13.74565229 7.21902011 -13.08557731 5.12836596 -11 2 C-7.16021329 -0.5598578 -4.48825826 -0.85231571 0 0 Z " fill="#A7A3F2" transform="translate(126,60)"/>
<path d="M0 0 C0.70105865 -0.00978378 1.40211731 -0.01956757 2.12442017 -0.02964783 C4.44987082 -0.05961575 6.77526373 -0.08099444 9.10083008 -0.09985352 C10.29303885 -0.10971126 10.29303885 -0.10971126 11.50933266 -0.11976814 C15.71893153 -0.15237266 19.92850503 -0.17681718 24.13818359 -0.19628906 C27.61772672 -0.21408163 31.09645625 -0.24886554 34.57568359 -0.29882812 C38.77967305 -0.35912752 42.98290986 -0.38977831 47.18731117 -0.39946175 C48.78648952 -0.40800373 50.38564845 -0.42679117 51.98457909 -0.45620537 C66.06250518 -0.70117546 66.06250518 -0.70117546 70.59423828 2.99755859 C73.58778028 6.16691796 75.06733591 9.18826573 75.55786133 13.52124023 C74.96147894 19.38566702 72.90542113 22.79241328 68.37036133 26.52124023 C64.93833931 28.33819307 61.944 29.30606695 58.18286133 30.20874023 C58.05331055 31.43850586 58.05331055 31.43850586 57.92114258 32.69311523 C56.75919066 41.60496665 56.75919066 41.60496665 53.55786133 44.95874023 C52.77411133 45.37124023 51.99036133 45.78374023 51.18286133 46.20874023 C51.51286133 45.56936523 51.84286133 44.92999023 52.18286133 44.27124023 C53.25557358 42.44079457 53.25557358 42.44079457 53.18286133 41.20874023 C51.53286133 41.86874023 49.88286133 42.52874023 48.18286133 43.20874023 C48.84286133 41.55874023 49.50286133 39.90874023 50.18286133 38.20874023 C48.20286133 38.70374023 48.20286133 38.70374023 46.18286133 39.20874023 C46.98723633 38.46624023 47.79161133 37.72374023 48.62036133 36.95874023 C50.95274724 34.45569194 51.81820527 33.49064474 52.18286133 30.20874023 C51.52286133 29.87874023 50.86286133 29.54874023 50.18286133 29.20874023 C53.90625015 26.67628828 56.72651216 25.79983798 61.18286133 25.33374023 C65.01893469 24.73848747 67.07940854 24.27240349 70.43286133 22.20874023 C72.96827496 17.86231687 73.17857444 14.11674346 72.18286133 9.20874023 C70.27359137 5.5934686 68.1256023 3.52298723 64.18286133 2.20874023 C61.98629387 2.10404754 59.7866721 2.06007795 57.58764648 2.04760742 C56.9222435 2.04264252 56.25684052 2.03767761 55.5712738 2.03256226 C53.37147993 2.01796546 51.17175816 2.01114297 48.97192383 2.00561523 C47.44119261 1.99986193 45.91046141 1.99410421 44.37973022 1.98834229 C41.17022364 1.9778395 37.96074205 1.97199205 34.7512207 1.96850586 C30.64317876 1.96302129 26.53546829 1.9389913 22.42753029 1.91053391 C19.26534058 1.89189007 16.10323047 1.88670101 12.94099045 1.88516998 C11.42675336 1.88214707 9.91251755 1.87413071 8.3983345 1.8609848 C6.27758967 1.84388643 4.15765146 1.84581319 2.03686523 1.85229492 C0.83123932 1.84864929 -0.3743866 1.84500366 -1.61654663 1.84124756 C-6.16578189 2.36359174 -8.77620681 3.91654896 -11.62963867 7.45874023 C-13.15428794 10.98950696 -13.21920452 13.38911467 -12.81713867 17.20874023 C-11.343224 20.85843372 -9.81805186 23.63652893 -6.81713867 26.20874023 C-10.76922645 24.92698203 -12.67684621 23.78608621 -14.81713867 20.20874023 C-15.70136648 15.34891451 -15.98289051 10.31208453 -13.53979492 5.90405273 C-9.26010361 0.86050454 -6.63712059 0.08288876 0 0 Z " fill="#8D8D96" transform="translate(122.817138671875,55.791259765625)"/>
<path d="M0 0 C2.30126429 4.60252859 1.45553263 10.93591611 1.625 16 C1.70234375 17.96453125 1.70234375 17.96453125 1.78125 19.96875 C1.82507813 21.2165625 1.86890625 22.464375 1.9140625 23.75 C1.9548291 24.89984375 1.9955957 26.0496875 2.03759766 27.234375 C2 30 2 30 1 32 C1.99 32 2.98 32 4 32 C3.125 35.875 3.125 35.875 2 37 C0.33382885 37.04063832 -1.33388095 37.042721 -3 37 C-3 37.99 -3 38.98 -3 40 C-2.34 40 -1.68 40 -1 40 C0.4606285 42.64738916 1 43.89448334 1 47 C2.485 47.495 2.485 47.495 4 48 C2.02 48 0.04 48 -2 48 C-2 47.01 -2 46.02 -2 45 C-5.3 45.99 -8.6 46.98 -12 48 C-10.1875 46 -10.1875 46 -8 44 C-7.01 44 -6.02 44 -5 44 C-5 43.01 -5 42.02 -5 41 C-7.97 41.99 -10.94 42.98 -14 44 C-11.16569547 40.7457985 -9.31392226 39.4793247 -5 39 C-5 38.34 -5 37.68 -5 37 C-8.63 37.99 -12.26 38.98 -16 40 C-14 37 -14 37 -11 36 C-7.8743374 35.73317514 -4.749164 35.55540852 -1.6171875 35.37890625 C-0.32167969 35.19134766 -0.32167969 35.19134766 1 35 C1.33 34.34 1.66 33.68 2 33 C-0.22889496 32.94571027 -2.45817471 32.90707662 -4.6875 32.875 C-6.54955078 32.84019531 -6.54955078 32.84019531 -8.44921875 32.8046875 C-11.81237857 32.98967979 -13.9985587 33.54232105 -17 35 C-15.94921875 33.015625 -15.94921875 33.015625 -14 31 C-10.64453125 30.609375 -10.64453125 30.609375 -6.8125 30.75 C-5.54019531 30.78609375 -4.26789063 30.8221875 -2.95703125 30.859375 C-1.49330078 30.92898437 -1.49330078 30.92898437 0 31 C0 26.71 0 22.42 0 18 C-1.32 17.67 -2.64 17.34 -4 17 C-3.67 19.31 -3.34 21.62 -3 24 C-3.99 24 -4.98 24 -6 24 C-6 23.01 -6 22.02 -6 21 C-6.66 20.01 -7.32 19.02 -8 18 C-8.125 14.8125 -8.125 14.8125 -8 12 C-5.03 12.495 -5.03 12.495 -2 13 C-2 11.68 -2 10.36 -2 9 C-3.32 9 -4.64 9 -6 9 C-5.67 8.01 -5.34 7.02 -5 6 C-4.01 6 -3.02 6 -2 6 C-2 4.35 -2 2.7 -2 1 C-1.34 0.67 -0.68 0.34 0 0 Z " fill="#8D8D90" transform="translate(97,51)"/>
<path d="M0 0 C0 3 0 3 -1.375 4.6875 C-3 6 -3 6 -5 6 C-5 6.99 -5 7.98 -5 9 C-4.01 9 -3.02 9 -2 9 C-1.88795745 24.37051459 -1.95372741 39.66089646 -3 55 C-3.33 55 -3.66 55 -4 55 C-4 43.12 -4 31.24 -4 19 C-4.66 18.67 -5.32 18.34 -6 18 C-5.01 18 -4.02 18 -3 18 C-3 17.34 -3 16.68 -3 16 C-3.72703125 15.95101562 -4.4540625 15.90203125 -5.203125 15.8515625 C-12.5589333 15.30459214 -19.74522224 14.32489736 -27 13 C-26.67 10.69 -26.34 8.38 -26 6 C-24.68 5.67 -23.36 5.34 -22 5 C-22 5.66 -22 6.32 -22 7 C-18.83754459 8.0541518 -16.13051782 8.31275672 -12.8125 8.5625 C-11.72582031 8.64628906 -10.63914063 8.73007813 -9.51953125 8.81640625 C-8.68808594 8.87699219 -7.85664063 8.93757813 -7 9 C-7 7.68 -7 6.36 -7 5 C-4.0625 2.8125 -4.0625 2.8125 -1 1 C-0.67 0.67 -0.34 0.34 0 0 Z " fill="#B1D27A" transform="translate(171,104)"/>
<path d="M0 0 C3.4375 2 3.4375 2 6 5 C6.9389409 11.68995388 5.23089377 18.40592623 4 25 C2.34385343 25.38218767 0.67542976 25.71395102 -1 26 C-2 25 -2 25 -2.1328125 22.9609375 C-2.1205443 18.90016392 -2.08043999 14.95378747 -1.4375 10.9375 C-1.293125 9.968125 -1.14875 8.99875 -1 8 C-2.04862094 6.74843946 -2.04862094 6.74843946 -4.375 6.6875 C-7.15083198 6.72670721 -7.15083198 6.72670721 -8.8125 9 C-9.204375 9.66 -9.59625 10.32 -10 11 C-11.65 10.67 -13.3 10.34 -15 10 C-12.89338804 2.62685813 -7.64757314 -1.36563806 0 0 Z " fill="#AEAAF5" transform="translate(44,58)"/>
<path d="M0 0 C0.66 0 1.32 0 2 0 C2.33 0.99 2.66 1.98 3 3 C5.10584438 3.80563638 5.10584438 3.80563638 7.5625 4.1875 C8.38878906 4.34605469 9.21507812 4.50460938 10.06640625 4.66796875 C10.70449219 4.77753906 11.34257812 4.88710937 12 5 C11.34 6.98 10.68 8.96 10 11 C10.5775 11.20625 11.155 11.4125 11.75 11.625 C14.95643167 13.58448602 16.25198581 15.69125885 18 19 C18.25 22.875 18.25 22.875 18 26 C17.34 26.33 16.68 26.66 16 27 C15.34 26.67 14.68 26.34 14 26 C13.43597524 23.46188859 13.10621644 20.92362155 12.7578125 18.34765625 C12.21293454 15.88325482 12.21293454 15.88325482 10.16796875 14.63671875 C7.74815563 13.744823 7.74815563 13.744823 4.1875 14.75 C1.40015602 15.225888 0.37812572 15.23000868 -2.07421875 13.73828125 C-3.81037906 12.22750483 -5.43541214 10.68682128 -7 9 C-5.66757255 5.00271766 -3.43722554 4.26710621 0 2 C0 1.34 0 0.68 0 0 Z " fill="#8C8BEC" transform="translate(204,132)"/>
<path d="M0 0 C2.27504065 0 4.47527491 0.1143346 6.734375 0.375 C9.01814902 4.4114378 8.86975271 6.83348917 7.734375 11.375 C6.109375 13.8125 6.109375 13.8125 3.734375 15.375 C-0.14602589 15.86005011 -2.3417862 15.94351618 -5.703125 13.875 C-6.21875 13.38 -6.734375 12.885 -7.265625 12.375 C-6.78638943 7.34302655 -5.83379953 0.96559441 0 0 Z " fill="#F9F9F9" transform="translate(236.265625,176.625)"/>
<path d="M0 0 C1.18704222 4.59978859 1.72524288 9.2901874 1 14 C-0.9375 17 -0.9375 17 -4 19 C-6.3935322 19.50390152 -8.66695186 19.74615009 -11.109375 19.859375 C-13.01162517 19.79405549 -13.01162517 19.79405549 -14 21 C-18.54814556 21.43796957 -22.72948163 21.44079209 -27.0625 19.9375 C-29.84615361 17.15384639 -29.73803202 14.86402764 -30 11 C-30.3274322 8.99902542 -30.65876419 6.99866686 -31 5 C-22.34503759 10.59687569 -22.34503759 10.59687569 -18.6875 13.8125 C-15.65417951 16.29410079 -15.65417951 16.29410079 -12 17 C-10.845 17.12375 -9.69 17.2475 -8.5 17.375 C-4.92755677 17.30964569 -4.92755677 17.30964569 -2.5 15 C-0.41508136 10.83016273 -1.08117153 8.51757331 -2 4 C-4.31 3.67 -6.62 3.34 -9 3 C-9 2.67 -9 2.34 -9 2 C-7.68786298 1.66524067 -6.37527913 1.33223233 -5.0625 1 C-3.96615234 0.7215625 -3.96615234 0.7215625 -2.84765625 0.4375 C-1 0 -1 0 0 0 Z " fill="#8F8DE9" transform="translate(245,174)"/>
<path d="M0 0 C2.31 0.33 4.62 0.66 7 1 C6.64577204 7.25802723 4.9164539 11.86768102 2.15625 17.484375 C1.14820591 19.677552 0.4840921 21.64555206 0 24 C-1.98 23.67 -3.96 23.34 -6 23 C-5.38698875 15.1841066 -3.52173738 7.04347476 0 0 Z " fill="#D1CFFA" transform="translate(267,159)"/>
<path d="M0 0 C0.969375 0.845625 1.93875 1.69125 2.9375 2.5625 C7.17152248 6.19785946 11.57169222 9.60596819 16 13 C13.52614329 15.47385671 12.02495772 15.28571102 8.63867188 15.32226562 C7.6109668 15.31743164 7.6109668 15.31743164 6.5625 15.3125 C5.5405957 15.33666992 5.5405957 15.33666992 4.49804688 15.36132812 C1.58389663 15.36418234 -0.4879514 15.34445036 -2.9453125 13.69140625 C-4.77356597 10.75942939 -4.40409335 8.34820206 -4 5 C-2 2.0625 -2 2.0625 0 0 Z " fill="#161A2B" transform="translate(181,151)"/>
<path d="M0 0 C0.66 0 1.32 0 2 0 C2.433125 1.11375 2.86625 2.2275 3.3125 3.375 C4.69911119 7.17512334 4.69911119 7.17512334 8 9 C8 9.99 8 10.98 8 12 C7.071875 12.8971875 7.071875 12.8971875 6.125 13.8125 C3.62673257 16.38424589 2.93318923 18.57830617 2 22 C1.34 22 0.68 22 0 22 C-0.17015625 21.37351562 -0.3403125 20.74703125 -0.515625 20.1015625 C-0.87914062 18.87566406 -0.87914062 18.87566406 -1.25 17.625 C-1.48203125 16.81289062 -1.7140625 16.00078125 -1.953125 15.1640625 C-3.2214892 12.54214546 -4.32423308 12.00617682 -7 11 C-5.87092799 7.61278396 -4.48555675 6.48555675 -2 4 C-0.76487921 1.86690808 -0.76487921 1.86690808 0 0 Z " fill="#D1CDF8" transform="translate(256,73)"/>
<path d="M0 0 C0.93423645 3.01031744 1.04449911 3.86650268 0 7 C-0.23091677 9.96343192 -0.38044867 12.92563154 -0.5234375 15.89453125 C-1.06121344 19.39889087 -2.27870716 21.92100291 -4 25 C-2.98679687 25.19335938 -1.97359375 25.38671875 -0.9296875 25.5859375 C0.42191568 25.84874923 1.77347592 26.11178183 3.125 26.375 C3.79015625 26.50132813 4.4553125 26.62765625 5.140625 26.7578125 C9.218661 27.5574274 13.08853085 28.59869485 17 30 C16.88637738 31.4800841 16.75877092 32.95910074 16.625 34.4375 C16.55539063 35.26121094 16.48578125 36.08492187 16.4140625 36.93359375 C16.27742188 37.61550781 16.14078125 38.29742187 16 39 C15.01 39.495 15.01 39.495 14 40 C13.05431417 42.15788312 12.19047955 44.35212122 11.375 46.5625 C10.92898437 47.76003906 10.48296875 48.95757812 10.0234375 50.19140625 C9.68570313 51.11824219 9.34796875 52.04507813 9 53 C7.85319899 49.55959697 8.12875262 48.99729616 9.43359375 45.76953125 C9.75263672 44.96708984 10.07167969 44.16464844 10.40039062 43.33789062 C10.91375977 42.08782227 10.91375977 42.08782227 11.4375 40.8125 C11.77587891 39.96751953 12.11425781 39.12253906 12.46289062 38.25195312 C13.30025552 36.16443784 14.14620197 34.08083591 15 32 C10.10497722 30.2640654 5.17883116 29.0313851 0.125 27.875 C-0.65875 27.69324219 -1.4425 27.51148437 -2.25 27.32421875 C-4.16607477 26.88025021 -6.0829566 26.43976719 -8 26 C-8.66 28.64 -9.32 31.28 -10 34 C-10.66 34 -11.32 34 -12 34 C-11.60404157 32.51515588 -11.18249294 31.0371169 -10.75 29.5625 C-10.40195312 28.32693359 -10.40195312 28.32693359 -10.046875 27.06640625 C-9 25 -9 25 -6.890625 24.21484375 C-6.26671875 24.14394531 -5.6428125 24.07304688 -5 24 C-4.89042969 23.02160156 -4.78085938 22.04320313 -4.66796875 21.03515625 C-3.79967874 13.71631176 -2.66928437 6.91587314 0 0 Z " fill="#769053" transform="translate(72,94)"/>
<path d="M0 0 C0.66 0.33 1.32 0.66 2 1 C2 1.66 2 2.32 2 3 C2.66 3 3.32 3 4 3 C4.125 10.75 4.125 10.75 3 13 C2.01 12.67 1.02 12.34 0 12 C-0.33 10.02 -0.66 8.04 -1 6 C-3.02350324 9.03525486 -3.32124018 10.19426202 -3.625 13.6875 C-3.69976562 14.49574219 -3.77453125 15.30398437 -3.8515625 16.13671875 C-3.90054688 16.75160156 -3.94953125 17.36648437 -4 18 C-4.66 18 -5.32 18 -6 18 C-6 19.65 -6 21.3 -6 23 C-6.66 22.67 -7.32 22.34 -8 22 C-8.02725341 20.2709226 -8.04650987 18.54171824 -8.0625 16.8125 C-8.07410156 15.84957031 -8.08570313 14.88664062 -8.09765625 13.89453125 C-8.00486622 11.14423487 -7.62111685 8.67520409 -7 6 C-6.01 5.67 -5.02 5.34 -4 5 C-2.61423077 3.37667033 -1.27358732 1.71275535 0 0 Z " fill="#20214B" transform="translate(203,99)"/>
<path d="M0 0 C0 0.33 0 0.66 0 1 C-0.86882812 1.23074219 -1.73765625 1.46148437 -2.6328125 1.69921875 C-10.79184692 4.00820724 -16.18013626 5.77020439 -21 13 C-21.99 13 -22.98 13 -24 13 C-24.33 17.95 -24.66 22.9 -25 28 C-27 27 -27 27 -28 24 C-28.5065501 19.100581 -28.69216255 15.23600455 -26.25 10.875 C-24 9 -24 9 -20 9 C-19.690625 8.13375 -19.690625 8.13375 -19.375 7.25 C-17.08572313 3.50391057 -13.71628313 1.52808712 -9.5625 0.25 C-6.36325968 -0.06212101 -3.21205397 -0.06298145 0 0 Z " fill="#908EE5" transform="translate(220,92)"/>
<path d="M0 0 C1.20270964 2.40541929 1.20316663 4.10366591 1.31640625 6.7890625 C1.37924805 8.20058594 1.37924805 8.20058594 1.44335938 9.640625 C1.48267578 10.62546875 1.52199219 11.6103125 1.5625 12.625 C1.60568359 13.61757812 1.64886719 14.61015625 1.69335938 15.6328125 C1.79961069 18.08839838 1.90164964 20.54408703 2 23 C1.34 23.33 0.68 23.66 0 24 C0 22.02 0 20.04 0 18 C-1.32 17.67 -2.64 17.34 -4 17 C-3.67 19.31 -3.34 21.62 -3 24 C-3.99 24 -4.98 24 -6 24 C-6 23.01 -6 22.02 -6 21 C-6.66 20.01 -7.32 19.02 -8 18 C-8.125 14.8125 -8.125 14.8125 -8 12 C-5.03 12.495 -5.03 12.495 -2 13 C-2 11.68 -2 10.36 -2 9 C-3.32 9 -4.64 9 -6 9 C-5.67 8.01 -5.34 7.02 -5 6 C-4.01 6 -3.02 6 -2 6 C-2 4.35 -2 2.7 -2 1 C-1.34 0.67 -0.68 0.34 0 0 Z " fill="#8C8C94" transform="translate(97,51)"/>
<path d="M0 0 C4.82360189 -0.19294408 8.49646738 0.24252386 13 2 C11.8553125 3.3303125 11.8553125 3.3303125 10.6875 4.6875 C8.49072889 7.31488818 6.67439315 10.00371753 5 13 C2 12 2 12 0.8125 10.4375 C-0.37040794 6.88877617 -0.12443279 3.73298379 0 0 Z " fill="#E7E8E8" transform="translate(176,137)"/>
<path d="M0 0 C1.44037669 0.93307421 2.87718985 1.87165077 4.3125 2.8125 C5.11300781 3.33457031 5.91351563 3.85664063 6.73828125 4.39453125 C11.46001938 7.74623137 12.48405898 9.89952176 13.6875 15.6875 C13.93886719 16.86699219 14.19023437 18.04648438 14.44921875 19.26171875 C14.63097656 20.16535156 14.81273437 21.06898438 15 22 C7.34563677 18.94496906 3.19328308 9.15295409 0 2 C0 1.34 0 0.68 0 0 Z " fill="#8D8CE9" transform="translate(201,169)"/>
<path d="M0 0 C2.475 0.99 2.475 0.99 5 2 C5.19466332 3.79090253 5.38051213 5.58276505 5.5625 7.375 C5.66691406 8.37273437 5.77132812 9.37046875 5.87890625 10.3984375 C6 13 6 13 5 15 C0.71 15 -3.58 15 -8 15 C-7.34 14.34 -6.68 13.68 -6 13 C-6.33 12.34 -6.66 11.68 -7 11 C-6.236875 11.061875 -5.47375 11.12375 -4.6875 11.1875 C-2.04287344 11.1866473 -2.04287344 11.1866473 -0.125 10 C1.74759551 6.67094132 0.66374222 3.68075232 0 0 Z " fill="#E6E5E8" transform="translate(92,67)"/>
<path d="M0 0 C2.59806172 2.26090867 4.45700062 4.91400125 6 8 C6.04022391 10.3329866 6.04320247 12.66706666 6 15 C5.34 15.33 4.68 15.66 4 16 C3.34 15.67 2.68 15.34 2 15 C1.43597524 12.46188859 1.10621644 9.92362155 0.7578125 7.34765625 C0.21575358 4.88188358 0.21575358 4.88188358 -1.8359375 3.66015625 C-5.04394328 2.68154077 -7.75604499 3.3761625 -11 4 C-8.44339945 -1.66104408 -5.94389345 -1.51115935 0 0 Z " fill="#E8E9F4" transform="translate(216,143)"/>
<path d="M0 0 C1.32 0.33 2.64 0.66 4 1 C4.17677674 6.12652546 4.2087474 10.2511931 2 15 C-0.125 16.875 -0.125 16.875 -2 18 C-1.67 17.360625 -1.34 16.72125 -1 16.0625 C0.07271225 14.23205433 0.07271225 14.23205433 0 13 C-1.65 13.66 -3.3 14.32 -5 15 C-4.34 13.35 -3.68 11.7 -3 10 C-4.32 10.33 -5.64 10.66 -7 11 C-6.21625 10.29875 -5.4325 9.5975 -4.625 8.875 C-1.91639182 5.90842914 -0.98277285 3.8417484 0 0 Z " fill="#A2A3A8" transform="translate(176,84)"/>
<path d="M0 0 C2.1875 0.3125 2.1875 0.3125 4 1 C0.25 4 0.25 4 -2 4 C-1.49396008 6.16874252 -1.00016187 7.99967627 0 10 C-0.53625 9.690625 -1.0725 9.38125 -1.625 9.0625 C-4.39884729 7.82156832 -7.00596221 7.45561445 -10 7 C-10.66 6.67 -11.32 6.34 -12 6 C-12 5.67 -12 5.34 -12 5 C-17.94 4.01 -17.94 4.01 -24 3 C-24 4.65 -24 6.3 -24 8 C-27 4.375 -27 4.375 -27 1 C-20.59765348 0.6851305 -15.57982621 1.46109539 -9.48046875 3.44140625 C-6.8421787 4.03554086 -5.49729804 3.97576546 -3 3 C-2.505 2.46375 -2.01 1.9275 -1.5 1.375 C-1.005 0.92125 -0.51 0.4675 0 0 Z " fill="#545C66" transform="translate(200,134)"/>
<path d="M0 0 C0.66 0 1.32 0 2 0 C4.93401015 4.48730964 4.93401015 4.48730964 6 7 C5.375 9.125 5.375 9.125 4 11 C3.32033324 12.66140763 2.65061095 14.32700041 2 16 C-0.38672669 13.03716687 -2.7353371 10.05729491 -5 7 C-4.0409375 6.1028125 -4.0409375 6.1028125 -3.0625 5.1875 C-0.79689611 3.09189663 -0.79689611 3.09189663 0 0 Z " fill="#D2CFF8" transform="translate(45,32)"/>
<path d="M0 0 C2.5 2.25 2.5 2.25 5 5 C5 9.33094958 4.03435531 11.27034861 2 15 C1.34 15 0.68 15 0 15 C-0.45375 14.071875 -0.9075 13.14375 -1.375 12.1875 C-2.9421633 8.96078611 -2.9421633 8.96078611 -5 6 C-3.35 4.02 -1.7 2.04 0 0 Z " fill="#D1CDF6" transform="translate(172,175)"/>
<path d="M0 0 C0.33 0 0.66 0 1 0 C1.33 2.97 1.66 5.94 2 9 C2.78375 9.12375 3.5675 9.2475 4.375 9.375 C7 11 7 11 7.77734375 13.04296875 C9.2589216 20.01828055 10.62755797 27.57979819 7 34 C5.60264989 31.20529978 5.98006093 28.92726321 6.0625 25.8125 C6.0849956 20.717246 6.08512874 16.6667167 4 12 C2.33729713 10.66172696 0.67083819 9.32810215 -1 8 C-1.8125 4.75 -1.8125 4.75 -2 2 C-1.34 2 -0.68 2 0 2 C0 1.34 0 0.68 0 0 Z " fill="#A7A8AA" transform="translate(62,66)"/>
<path d="M0 0 C0.33 0 0.66 0 1 0 C1.47560395 5.82614841 0.61342669 9.50279402 -3 14 C-7.08065444 17.35520476 -10.91122926 18.72780732 -16 20 C-16.66 20.33 -17.32 20.66 -18 21 C-18 20.34 -18 19.68 -18 19 C-19.98 19.33 -21.96 19.66 -24 20 C-22 17 -22 17 -18.69921875 16.2265625 C-16.69383213 15.90729697 -14.68700375 15.62493454 -12.67382812 15.359375 C-7.63357593 14.54176732 -5.12259307 13.02572491 -2 9 C-1.24318116 6.85393168 -1.24318116 6.85393168 -1.25 4.75 C-1 1 -1 1 0 0 Z " fill="#9B9BA4" transform="translate(197,66)"/>
<path d="M0 0 C1.23450107 3.7035032 0.60309296 5.28296697 -0.3125 9.0625 C-2.88669595 20.51404949 -3.26068623 32.31831158 -4 44 C-4.33 44 -4.66 44 -5 44 C-5.51986584 12.79605263 -5.51986584 12.79605263 0 0 Z " fill="#97969B" transform="translate(18,119)"/>
<path d="M0 0 C0.99 0 1.98 0 3 0 C4.6559633 5.31651376 4.6559633 5.31651376 5 8 C3.75 10 3.75 10 2 11 C1.34 11 0.68 11 0 11 C-0.66 12.32 -1.32 13.64 -2 15 C-2.3690205 4.44191344 -2.3690205 4.44191344 0 0 Z " fill="#A3A4A7" transform="translate(75,79)"/>
<path d="M0 0 C0.5983667 0.06058594 1.1967334 0.12117187 1.81323242 0.18359375 C12.89555998 1.29044294 23.85031953 2.37866839 35 2 C34.67 2.66 34.34 3.32 34 4 C30.93744039 4.0270491 27.8751214 4.04686298 24.8125 4.0625 C23.51602539 4.07506836 23.51602539 4.07506836 22.19335938 4.08789062 C17.99713231 4.10396812 14.09063114 4.07559038 10 3 C9.34 4.65 8.68 6.3 8 8 C7.67 7.34 7.34 6.68 7 6 C7.33 5.34 7.66 4.68 8 4 C5.36 3.34 2.72 2.68 0 2 C0 1.34 0 0.68 0 0 Z " fill="#5556AC" transform="translate(207,134)"/>
<path d="M0 0 C0.66 0 1.32 0 2 0 C2.33 0.66 2.66 1.32 3 2 C3.99 2.33 4.98 2.66 6 3 C5.67 5.31 5.34 7.62 5 10 C2.69 10 0.38 10 -2 10 C-2 8.35 -2 6.7 -2 5 C-2.66 5 -3.32 5 -4 5 C-4 4.34 -4 3.68 -4 3 C-3.01 2.67 -2.02 2.34 -1 2 C-0.67 1.34 -0.34 0.68 0 0 Z " fill="#B8D97B" transform="translate(151,39)"/>
<path d="M0 0 C0.66 0 1.32 0 2 0 C2.33 0.66 2.66 1.32 3 2 C3.99 2.33 4.98 2.66 6 3 C5.34 5.31 4.68 7.62 4 10 C2.02 10 0.04 10 -2 10 C-2.66 7.69 -3.32 5.38 -4 3 C-2.68 2.67 -1.36 2.34 0 2 C0 1.34 0 0.68 0 0 Z " fill="#BCDA84" transform="translate(136,39)"/>
<path d="M0 0 C1.94241961 2.5335908 2 3.78187214 2 7 C2.99 7.33 3.98 7.66 5 8 C3.02 8 1.04 8 -1 8 C-1 7.01 -1 6.02 -1 5 C-5.95 6.485 -5.95 6.485 -11 8 C-9.1875 6 -9.1875 6 -7 4 C-6.01 4 -5.02 4 -4 4 C-4 3.01 -4 2.02 -4 1 C-8.455 2.485 -8.455 2.485 -13 4 C-8.43814577 -0.71391604 -6.61391319 -1.5353727 0 0 Z " fill="#ABAAAE" transform="translate(96,91)"/>
<path d="M0 0 C4.55555556 0.55555556 4.55555556 0.55555556 6 2 C6.04063832 3.66617115 6.042721 5.33388095 6 7 C3.69 7.66 1.38 8.32 -1 9 C-1.625 5.625 -1.625 5.625 -2 2 C-1.34 1.34 -0.68 0.68 0 0 Z " fill="#525096" transform="translate(121,64)"/>
<path d="M0 0 C0.66 0 1.32 0 2 0 C2.33 0.66 2.66 1.32 3 2 C3.99 2.33 4.98 2.66 6 3 C5.34 5.31 4.68 7.62 4 10 C2.02 10 0.04 10 -2 10 C-2.66 7.69 -3.32 5.38 -4 3 C-3.01 2.67 -2.02 2.34 -1 2 C-0.67 1.34 -0.34 0.68 0 0 Z " fill="#C0D88E" transform="translate(121,39)"/>
<path d="M0 0 C1.18490647 4.59151259 1.74089158 9.29917068 1 14 C-1.58846923 17.76504616 -3.22516422 18.7862522 -7.625 20 C-11 20 -11 20 -12.7109375 18.5 C-13.13632813 18.005 -13.56171875 17.51 -14 17 C-13.39671875 17.05800781 -12.7934375 17.11601562 -12.171875 17.17578125 C-6.89339356 17.50206228 -6.89339356 17.50206228 -2.375 15 C-0.46768077 10.83857623 -1.09576939 8.44580052 -2 4 C-4.31 3.67 -6.62 3.34 -9 3 C-9 2.67 -9 2.34 -9 2 C-7.68786298 1.66524067 -6.37527913 1.33223233 -5.0625 1 C-3.96615234 0.7215625 -3.96615234 0.7215625 -2.84765625 0.4375 C-1 0 -1 0 0 0 Z " fill="#9090A1" transform="translate(245,174)"/>
<path d="M0 0 C0.33 0.99 0.66 1.98 1 3 C2.60875 2.87625 2.60875 2.87625 4.25 2.75 C10.11565624 2.7289384 15.66784532 4.66238339 21 7 C21.33 7.66 21.66 8.32 22 9 C21.33355469 8.79503906 20.66710937 8.59007813 19.98046875 8.37890625 C13.30578947 6.42784615 6.93883025 5.38921872 0 5 C-0.66 6.65 -1.32 8.3 -2 10 C-2.99 10 -3.98 10 -5 10 C-3.99088542 8.27473958 -2.98177083 6.54947917 -1.97265625 4.82421875 C-0.86098753 2.86180445 -0.86098753 2.86180445 0 0 Z " fill="#7C915F" transform="translate(96,96)"/>
<path d="M0 0 C0.66 0.33 1.32 0.66 2 1 C1.67 3.97 1.34 6.94 1 10 C-2.33333333 8.66666667 -5.66666667 7.33333333 -9 6 C-9 5.34 -9 4.68 -9 4 C-7.54618103 3.30300448 -6.08677047 2.61766134 -4.625 1.9375 C-3.40683594 1.36322266 -3.40683594 1.36322266 -2.1640625 0.77734375 C-1.44992188 0.52082031 -0.73578125 0.26429687 0 0 Z " fill="#B7B4D8" transform="translate(210,66)"/>
<path d="M0 0 C0.66 0 1.32 0 2 0 C5.875 6.75 5.875 6.75 7 9 C6.01 9 5.02 9 4 9 C4.33 10.32 4.66 11.64 5 13 C5.66 13 6.32 13 7 13 C7 13.66 7 14.32 7 15 C3.16692632 13.7679406 1.55700807 11.36383404 -0.31640625 7.88671875 C-1.34535666 5.04681562 -0.83076938 2.83846206 0 0 Z " fill="#918EE2" transform="translate(197,117)"/>
<path d="M0 0 C-0.89138672 0.14501953 -0.89138672 0.14501953 -1.80078125 0.29296875 C-4.45678478 1.14685266 -5.41517703 2.18480122 -7.1875 4.3125 C-7.69667969 4.90675781 -8.20585937 5.50101563 -8.73046875 6.11328125 C-10.0611766 8.09091784 -10.57327387 9.67100075 -11 12 C-12.32 11.67 -13.64 11.34 -15 11 C-13.42506954 6.53769702 -11.52986411 1.2241278 -7.0625 -0.9375 C-4.57701834 -1.01281763 -2.40664288 -0.60166072 0 0 Z " fill="#98B56C" transform="translate(195,141)"/>
<path d="M0 0 C3.59391114 1.33488128 6.75490696 2.96022723 10 5 C9.484375 6.03125 8.96875 7.0625 8.4375 8.125 C6.86604974 11.73052374 6.96889338 14.15678443 8 18 C4.18315774 16.44499019 1.80804268 13.96404505 -1 11 C1 12 3 13 5 14 C5.96999536 10.01044799 5.96999536 10.01044799 6 6 C4.23515275 3.76271671 2.40253696 2.61803509 0 1 C0 0.67 0 0.34 0 0 Z " fill="#697473" transform="translate(223,173)"/>
<path d="M0 0 C2.0625 0.4375 2.0625 0.4375 4 1 C4.25 7.625 4.25 7.625 2 11 C1.01 10.67 0.02 10.34 -1 10 C-1.02689216 8.52093108 -1.04634621 7.04172517 -1.0625 5.5625 C-1.07410156 4.73878906 -1.08570313 3.91507812 -1.09765625 3.06640625 C-1 1 -1 1 0 0 Z " fill="#EDEDFB" transform="translate(252,110)"/>
<path d="M0 0 C3.57763189 -0.32523926 5.39542581 -0.42956587 8.375 1.6875 C10.29775454 4.42372761 10.14046327 5.74233264 10 9 C8.51444617 8.07265428 7.03672494 7.13275187 5.5625 6.1875 C4.73878906 5.66542969 3.91507813 5.14335937 3.06640625 4.60546875 C1 3 1 3 0 0 Z " fill="#EFF0EF" transform="translate(207,147)"/>
<path d="M0 0 C2.97 0.495 2.97 0.495 6 1 C5.88637738 2.4800841 5.75877092 3.95910074 5.625 5.4375 C5.55539063 6.26121094 5.48578125 7.08492187 5.4140625 7.93359375 C5.27742188 8.61550781 5.14078125 9.29742187 5 10 C4.01 10.495 4.01 10.495 3 11 C2.05431417 13.15788312 1.19047955 15.35212122 0.375 17.5625 C-0.07101563 18.76003906 -0.51703125 19.95757812 -0.9765625 21.19140625 C-1.31429687 22.11824219 -1.65203125 23.04507813 -2 24 C-3.14680101 20.55959697 -2.87124738 19.99729616 -1.56640625 16.76953125 C-1.24736328 15.96708984 -0.92832031 15.16464844 -0.59960938 14.33789062 C-0.08624023 13.08782227 -0.08624023 13.08782227 0.4375 11.8125 C0.77587891 10.96751953 1.11425781 10.12253906 1.46289062 9.25195312 C2.30025552 7.16443784 3.14620197 5.08083591 4 3 C2.68 2.01 1.36 1.02 0 0 Z " fill="#6E913E" transform="translate(83,123)"/>
<path d="M0 0 C0.66 0 1.32 0 2 0 C1.67 1.65 1.34 3.3 1 5 C1.55429688 4.62746094 2.10859375 4.25492187 2.6796875 3.87109375 C3.40414062 3.39800781 4.12859375 2.92492187 4.875 2.4375 C5.95394531 1.72400391 5.95394531 1.72400391 7.0546875 0.99609375 C7.69664062 0.66738281 8.33859375 0.33867188 9 0 C9.66 0.33 10.32 0.66 11 1 C9.71283353 2.00578589 8.42011342 3.00446798 7.125 4 C6.04605469 4.8353125 6.04605469 4.8353125 4.9453125 5.6875 C3 7 3 7 1 7 C1.33 7.680625 1.66 8.36125 2 9.0625 C3.17307315 12.50840238 3.14180493 15.38397422 3 19 C2.34 19.33 1.68 19.66 1 20 C1.04125 18.948125 1.0825 17.89625 1.125 16.8125 C1.23951739 13.13986724 1.23951739 13.13986724 -0.0625 10.5625 C-1.44089299 6.7948925 -0.66602103 3.9295241 0 0 Z " fill="#828287" transform="translate(159,83)"/>
<path d="M0 0 C2.625 0.375 2.625 0.375 5 1 C5.625 2.875 5.625 2.875 6 5 C5.34 5.66 4.68 6.32 4 7 C1.375 6.625 1.375 6.625 -1 6 C-1.625 4.125 -1.625 4.125 -2 2 C-1.34 1.34 -0.68 0.68 0 0 Z " fill="#D1CFF6" transform="translate(259,185)"/>
<path d="M0 0 C1.2065625 0.0309375 1.2065625 0.0309375 2.4375 0.0625 C3.0625 2.4375 3.0625 2.4375 3.4375 5.0625 C2.7775 5.7225 2.1175 6.3825 1.4375 7.0625 C-1.1875 6.6875 -1.1875 6.6875 -3.5625 6.0625 C-3.605221 4.39638095 -3.60313832 2.72867115 -3.5625 1.0625 C-2.5625 0.0625 -2.5625 0.0625 0 0 Z " fill="#ABA6EE" transform="translate(48.5625,86.9375)"/>
<path d="M0 0 C6.93 0.495 6.93 0.495 14 1 C13.67 1.99 13.34 2.98 13 4 C9.04 4 5.08 4 1 4 C0.67 2.68 0.34 1.36 0 0 Z " fill="#F1F1F3" transform="translate(85,83)"/>
<path d="M0 0 C2.80362763 -0.22732116 4.46186517 -0.34081872 6.875 1.1875 C8 3 8 3 7.6875 5.6875 C7.460625 6.450625 7.23375 7.21375 7 8 C4.0625 7.625 4.0625 7.625 1 7 C0.67 6.34 0.34 5.68 0 5 C0.66 5 1.32 5 2 5 C2.33 3.68 2.66 2.36 3 1 C2.01 0.67 1.02 0.34 0 0 Z " fill="#26243A" transform="translate(90,44)"/>
<path d="M0 0 C2.56400777 2.56400777 2.32633634 3.68782015 2.375 7.25 C2.30624369 12.48235533 1.39369896 15.07603558 -2 19 C-3.32 17.68 -4.64 16.36 -6 15 C-5.34 15 -4.68 15 -4 15 C-3.67 14.34 -3.34 13.68 -3 13 C-2.34 13 -1.68 13 -1 13 C0.50662097 9.98675805 0.17770373 7.31713623 0 4 C-0.66 3.34 -1.32 2.68 -2 2 C-1.34 2 -0.68 2 0 2 C0 1.34 0 0.68 0 0 Z " fill="#918EE1" transform="translate(255,107)"/>
<path d="M0 0 C0.33 0 0.66 0 1 0 C1.33 1.65 1.66 3.3 2 5 C2.66 3.68 3.32 2.36 4 1 C5.24380707 3.48761414 4.92578712 4.70611902 4.5625 7.4375 C4.22689969 10.01609988 4 12.39165072 4 15 C1.50935112 15.68707555 -0.37886292 16 -3 16 C-2.34 15.01 -1.68 14.02 -1 13 C-0.5396236 9.80193335 -0.5396236 9.80193335 -0.375 6.3125 C-0.30023438 5.13300781 -0.22546875 3.95351562 -0.1484375 2.73828125 C-0.09945312 1.83464844 -0.05046875 0.93101563 0 0 Z " fill="#605EB0" transform="translate(244,107)"/>
<path d="M0 0 C0.99 0.33 1.98 0.66 3 1 C2.34 6.28 1.68 11.56 1 17 C0.34 16.67 -0.32 16.34 -1 16 C-1.02725341 14.2709226 -1.04650987 12.54171824 -1.0625 10.8125 C-1.07410156 9.84957031 -1.08570313 8.88664062 -1.09765625 7.89453125 C-1.00486622 5.14423487 -0.62111685 2.67520409 0 0 Z " fill="#6767B6" transform="translate(196,105)"/>
<path d="M0 0 C0.93423645 3.01031744 1.04449911 3.86650268 0 7 C-0.15083068 8.93566044 -0.27257155 10.8736757 -0.375 12.8125 C-0.73306129 17.65513216 -1.39542448 20.9232731 -4 25 C-4.66 24.67 -5.32 24.34 -6 24 C-5.566875 22.88625 -5.566875 22.88625 -5.125 21.75 C-4.13694363 18.45647875 -3.53080733 15.38705632 -3 12 C-2.34524076 7.82201249 -1.53987998 3.95969138 0 0 Z " fill="#879575" transform="translate(72,94)"/>
<path d="M0 0 C2.0625 0.4375 2.0625 0.4375 4 1 C3.67 3.64 3.34 6.28 3 9 C2.01 9.33 1.02 9.66 0 10 C-1.49106457 7.01787087 -1.11941467 4.28390342 -1 1 C-0.67 0.67 -0.34 0.34 0 0 Z " fill="#D9DCE1" transform="translate(226,104)"/>
<path d="M0 0 C4.10958767 1.45044271 7.43258745 3.51110752 11 6 C10.690625 6.53625 10.38125 7.0725 10.0625 7.625 C8.82172561 10.3984957 8.4090325 13.00042837 8 16 C7.34 15.67 6.68 15.34 6 15 C6.33 12.36 6.66 9.72 7 7 C6.34 7 5.68 7 5 7 C4.67 6.01 4.34 5.02 4 4 C2.70644173 2.62804426 1.37701298 1.28817344 0 0 Z " fill="#859C75" transform="translate(218,158)"/>
<path d="M0 0 C0.33 0 0.66 0 1 0 C1 1.98 1 3.96 1 6 C0.01 5.67 -0.98 5.34 -2 5 C-2.08004482 8.5219721 -2.04005702 11.61981469 -1 15 C-1.99 15 -2.98 15 -4 15 C-4 14.01 -4 13.02 -4 12 C-4.66 11.01 -5.32 10.02 -6 9 C-6.125 5.8125 -6.125 5.8125 -6 3 C-3.03 3.495 -3.03 3.495 0 4 C0 2.68 0 1.36 0 0 Z " fill="#BCBBBF" transform="translate(95,60)"/>
<path d="M0 0 C6.06892629 -0.25287193 11.16200408 0.30167391 17 2 C17 2.66 17 3.32 17 4 C12.38 3.34 7.76 2.68 3 2 C3 3.65 3 5.3 3 7 C0 3.375 0 3.375 0 0 Z " fill="#98979E" transform="translate(173,135)"/>
<path d="M0 0 C-2.05127045 3.9945793 -3.88912162 6.10267152 -8 8 C-8.66 7.67 -9.32 7.34 -10 7 C-8.07091409 1.3611335 -6.01450566 -0.32510841 0 0 Z " fill="#CDCED0" transform="translate(174,84)"/>
<path d="M0 0 C1.65 0.33 3.3 0.66 5 1 C4.67 2.65 4.34 4.3 4 6 C3.01 6.33 2.02 6.66 1 7 C0.01 6.01 -0.98 5.02 -2 4 C-1.34 2.68 -0.68 1.36 0 0 Z " fill="#B3B2B4" transform="translate(153,187)"/>
<path d="M0 0 C0.99386719 0.02707031 1.98773438 0.05414063 3.01171875 0.08203125 C4.15060547 0.13423828 4.15060547 0.13423828 5.3125 0.1875 C5.3125 0.8475 5.3125 1.5075 5.3125 2.1875 C3.4871875 2.373125 3.4871875 2.373125 1.625 2.5625 C-3.17784831 3.16497744 -6.64286951 4.49107967 -10.6875 7.1875 C-8.16861825 1.5684561 -6.31328865 -0.22282195 0 0 Z " fill="#EFF1F8" transform="translate(120.6875,57.8125)"/>
<path d="M0 0 C0.33 0.66 0.66 1.32 1 2 C3.02463255 2.65213292 3.02463255 2.65213292 5 3 C5 3.66 5 4.32 5 5 C-0.28 5 -5.56 5 -11 5 C-11 4.67 -11 4.34 -11 4 C-7.12315913 2.80712589 -4.08378077 2 0 2 C0 1.34 0 0.68 0 0 Z " fill="#7270BB" transform="translate(226,89)"/>
<path d="M0 0 C2.64 0 5.28 0 8 0 C7.67 1.32 7.34 2.64 7 4 C4.625 4.625 4.625 4.625 2 5 C1.34 4.34 0.68 3.68 0 3 C0 2.01 0 1.02 0 0 Z " fill="#D6D9DD" transform="translate(210,114)"/>
<path d="M0 0 C0.99 0 1.98 0 3 0 C3.16802051 1.45817797 3.33437143 2.9165484 3.5 4.375 C3.5928125 5.18710938 3.685625 5.99921875 3.78125 6.8359375 C4 9 4 9 4 11 C4.33 11.66 4.66 12.32 5 13 C3.046875 12.3515625 3.046875 12.3515625 1 11 C0.390625 8.3984375 0.390625 8.3984375 0.25 5.375 C0.19328125 4.37210937 0.1365625 3.36921875 0.078125 2.3359375 C0.05234375 1.56507812 0.0265625 0.79421875 0 0 Z " fill="#7A79D5" transform="translate(247,113)"/>
<path d="M0 0 C1.2065625 0.0309375 1.2065625 0.0309375 2.4375 0.0625 C3.0625 1.9375 3.0625 1.9375 3.4375 4.0625 C2.7775 4.7225 2.1175 5.3825 1.4375 6.0625 C0.1175 6.0625 -1.2025 6.0625 -2.5625 6.0625 C-2.94468767 4.40635343 -3.27645102 2.73792976 -3.5625 1.0625 C-2.5625 0.0625 -2.5625 0.0625 0 0 Z " fill="#ABABAD" transform="translate(244.5625,67.9375)"/>
<path d="M0 0 C0.33 0.99 0.66 1.98 1 3 C-0.09779824 4.15193623 -1.20349446 5.29634937 -2.3125 6.4375 C-2.92738281 7.07558594 -3.54226562 7.71367188 -4.17578125 8.37109375 C-6 10 -6 10 -9 11 C-7.59928507 5.70841026 -4.14512755 3.22521956 0 0 Z " fill="#B4B4B5" transform="translate(34,96)"/>
<path d="M0 0 C1.65 0.33 3.3 0.66 5 1 C4.67 2.65 4.34 4.3 4 6 C2.35 5.67 0.7 5.34 -1 5 C-0.67 3.35 -0.34 1.7 0 0 Z " fill="#B9D884" transform="translate(225,83)"/>
<path d="M0 0 C0.33 0 0.66 0 1 0 C1.33 4.62 1.66 9.24 2 14 C1.01 14.495 1.01 14.495 0 15 C0 13.02 0 11.04 0 9 C-1.32 8.67 -2.64 8.34 -4 8 C-4 7.01 -4 6.02 -4 5 C-3.01 4.67 -2.02 4.34 -1 4 C-0.26676204 1.98491642 -0.26676204 1.98491642 0 0 Z " fill="#96959C" transform="translate(97,60)"/>
<path d="M0 0 C1.65 0.33 3.3 0.66 5 1 C4.67 2.65 4.34 4.3 4 6 C2.35 5.67 0.7 5.34 -1 5 C-0.67 3.35 -0.34 1.7 0 0 Z " fill="#A7A8AB" transform="translate(55,27)"/>
<path d="M0 0 C0.99 0.33 1.98 0.66 3 1 C3.125 6.75 3.125 6.75 2 9 C1.01 8.67 0.02 8.34 -1 8 C-1.04241723 5.66705225 -1.04092937 3.33297433 -1 1 C-0.67 0.67 -0.34 0.34 0 0 Z " fill="#D1D4DB" transform="translate(204,103)"/>
<path d="M0 0 C0 0.33 0 0.66 0 1 C-2.07914664 1.70005949 -4.16351586 2.38462244 -6.25 3.0625 C-7.41015625 3.44535156 -8.5703125 3.82820313 -9.765625 4.22265625 C-12.80077085 4.95211763 -14.15703213 5.11889082 -17 4 C-11.25112995 0.22217111 -6.81362773 -0.13360054 0 0 Z " fill="#A4A4E5" transform="translate(220,92)"/>
<path d="M0 0 C0 3.90838866 -1.50567876 5.11594107 -4 8 C-3.01 8.33 -2.02 8.66 -1 9 C-4 10 -4 10 -7 9 C-5.64978174 4.58110387 -3.73884332 2.65654657 0 0 Z " fill="#B7B2EF" transform="translate(36,59)"/>
<path d="M0 0 C0.66 0 1.32 0 2 0 C2 0.66 2 1.32 2 2 C2.99 2.33 3.98 2.66 5 3 C4.67 3.33 4.34 3.66 4 4 C5.65 4.33 7.3 4.66 9 5 C8.67 5.66 8.34 6.32 8 7 C7.05125 6.979375 6.1025 6.95875 5.125 6.9375 C2.09333717 6.77448174 2.09333717 6.77448174 0 8 C0 5.36 0 2.72 0 0 Z " fill="#807ED7" transform="translate(241,135)"/>
<path d="M0 0 C1.32 0.66 2.64 1.32 4 2 C3.67 3.32 3.34 4.64 3 6 C1.35 5.67 -0.3 5.34 -2 5 C-1.125 1.125 -1.125 1.125 0 0 Z " fill="#A39FF0" transform="translate(122,65)"/>
<path d="M0 0 C0.99 0 1.98 0 3 0 C3.66 0.99 4.32 1.98 5 3 C8.86281814 4.98659219 12.7155798 5.49595057 17 6 C17 6.33 17 6.66 17 7 C12.19563218 7.38434943 8.90975143 7.47968712 4.5625 5.1875 C2 3 2 3 0 0 Z " fill="#BAD885" transform="translate(139,168)"/>
<path d="M0 0 C0.33 0 0.66 0 1 0 C1.33 1.65 1.66 3.3 2 5 C2.33 5 2.66 5 3 5 C3 7.97 3 10.94 3 14 C1 13 1 13 0 10 C-0.06802967 8.27204648 -0.08495645 6.54164635 -0.0625 4.8125 C-0.05347656 3.91144531 -0.04445312 3.01039062 -0.03515625 2.08203125 C-0.02355469 1.39496094 -0.01195312 0.70789063 0 0 Z " fill="#9B99E6" transform="translate(192,106)"/>
<path d="M0 0 C2.31 1.65 4.62 3.3 7 5 C6.01 5.495 6.01 5.495 5 6 C5.33 7.98 5.66 9.96 6 12 C3.25207517 8.59780735 0 4.51535412 0 0 Z " fill="#9897E0" transform="translate(201,169)"/>
<path d="M0 0 C-0.4640625 0.7734375 -0.4640625 0.7734375 -0.9375 1.5625 C-2.29059287 4.66665423 -2.61359424 7.65115007 -3 11 C-4.5625 9.3125 -4.5625 9.3125 -6 7 C-5.875 4.375 -5.875 4.375 -5 2 C-2 0 -2 0 0 0 Z " fill="#908EEA" transform="translate(254,107)"/>
<path d="M0 0 C0.99 0.33 1.98 0.66 3 1 C1.02 3.31 -0.96 5.62 -3 8 C-3.99 7.67 -4.98 7.34 -6 7 C-5.34 6.01 -4.68 5.02 -4 4 C-3.34 4 -2.68 4 -2 4 C-1.34 2.68 -0.68 1.36 0 0 Z " fill="#8F89D7" transform="translate(202,97)"/>
<path d="M0 0 C0 0.99 0 1.98 0 3 C-1.98 3.99 -1.98 3.99 -4 5 C-4 4.34 -4 3.68 -4 3 C-5.98 3.33 -7.96 3.66 -10 4 C-7.16124653 -0.25813021 -4.8137938 -0.13010254 0 0 Z " fill="#8D8D94" transform="translate(183,82)"/>
<path d="M0 0 C0.99 0 1.98 0 3 0 C3.66 2.64 4.32 5.28 5 8 C4.01 8.495 4.01 8.495 3 9 C2.67 7.02 2.34 5.04 2 3 C1.01 4.32 0.02 5.64 -1 7 C-1.04254356 5.00045254 -1.04080783 2.99958364 -1 1 C-0.67 0.67 -0.34 0.34 0 0 Z " fill="#848487" transform="translate(75,79)"/>
<path d="M0 0 C0.66 0 1.32 0 2 0 C3.4606285 2.64738916 4 3.89448334 4 7 C4.99 7.33 5.98 7.66 7 8 C5.02 8 3.04 8 1 8 C0.67 5.36 0.34 2.72 0 0 Z " fill="#B3B6B1" transform="translate(94,91)"/>
<path d="M0 0 C2.53541298 0.09086451 5.03554784 0.2370945 7.5625 0.4375 C8.62887695 0.51581055 8.62887695 0.51581055 9.71679688 0.59570312 C11.47821999 0.72574107 13.23916173 0.86226897 15 1 C15 1.33 15 1.66 15 2 C12.70954632 2.22127098 10.41755236 2.4266504 8.125 2.625 C6.21074219 2.79902344 6.21074219 2.79902344 4.2578125 2.9765625 C3.18273437 2.98429687 2.10765625 2.99203125 1 3 C0.34 2.34 -0.32 1.68 -1 1 C-0.67 0.67 -0.34 0.34 0 0 Z " fill="#B0B1B4" transform="translate(116,81)"/>
<path d="M0 0 C0.66 0 1.32 0 2 0 C2.33 0.66 2.66 1.32 3 2 C3.99 2.33 4.98 2.66 6 3 C5.67 3.99 5.34 4.98 5 6 C5 5.34 5 4.68 5 4 C0.545 4.495 0.545 4.495 -4 5 C-4 4.34 -4 3.68 -4 3 C-3.01 2.67 -2.02 2.34 -1 2 C-0.67 1.34 -0.34 0.68 0 0 Z " fill="#C4DD9A" transform="translate(151,39)"/>
<path d="M0 0 C3.59391114 1.33488128 6.75490696 2.96022723 10 5 C9.34 5.66 8.68 6.32 8 7 C6.66382648 6.02471263 5.3311249 5.04466681 4 4.0625 C3.2575 3.51722656 2.515 2.97195312 1.75 2.41015625 C1.1725 1.94480469 0.595 1.47945312 0 1 C0 0.67 0 0.34 0 0 Z " fill="#5F7447" transform="translate(223,173)"/>
<path d="M0 0 C0.66 0 1.32 0 2 0 C1.38722388 2.96175123 0.74627478 4.38058783 -1 7 C-1.66 7 -2.32 7 -3 7 C-2.67 5.35 -2.34 3.7 -2 2 C-1.34 2 -0.68 2 0 2 C0 1.34 0 0.68 0 0 Z " fill="#ECEDE8" transform="translate(93,99)"/>
<path d="M0 0 C1.32 0 2.64 0 4 0 C4 0.99 4 1.98 4 3 C0.535 4.485 0.535 4.485 -3 6 C-2 4 -1 2 0 0 Z " fill="#F3F2F4" transform="translate(88,92)"/>
<path d="M0 0 C0.99 0 1.98 0 3 0 C1.25 5.75 1.25 5.75 -1 8 C-1.04241723 5.66705225 -1.04092937 3.33297433 -1 1 C-0.67 0.67 -0.34 0.34 0 0 Z " fill="#A3C56F" transform="translate(51,139)"/>
<path d="M0 0 C1.65 0 3.3 0 5 0 C5 0.66 5 1.32 5 2 C4.34 2 3.68 2 3 2 C3 3.65 3 5.3 3 7 C0 3.375 0 3.375 0 0 Z " fill="#40404F" transform="translate(173,135)"/>
<path d="M0 0 C0.33 0.66 0.66 1.32 1 2 C0.00390625 4.3828125 0.00390625 4.3828125 -1.4375 7.125 C-1.91058594 8.03507812 -2.38367188 8.94515625 -2.87109375 9.8828125 C-3.24363281 10.58148438 -3.61617187 11.28015625 -4 12 C-5 9 -5 9 -4.2578125 6.9921875 C-3.88398438 6.29351562 -3.51015625 5.59484375 -3.125 4.875 C-2.75632812 4.17117187 -2.38765625 3.46734375 -2.0078125 2.7421875 C-1 1 -1 1 0 0 Z " fill="#939397" transform="translate(24,107)"/>
<path d="M0 0 C0 0.66 0 1.32 0 2 C-2.8125 3.125 -2.8125 3.125 -6 4 C-6.99 3.34 -7.98 2.68 -9 2 C-5.86501708 0.14223235 -3.62528568 -0.20140476 0 0 Z " fill="#F0F2F3" transform="translate(92,88)"/>
<path d="M0 0 C0 0.99 0 1.98 0 3 C-2.31 3 -4.62 3 -7 3 C-7 2.34 -7 1.68 -7 1 C-4.53721199 -0.231394 -2.7204945 -0.07159196 0 0 Z " fill="#7A7982" transform="translate(84,60)"/>
<path d="M0 0 C1.65 0 3.3 0 5 0 C5.33 1.32 5.66 2.64 6 4 C4.68 4 3.36 4 2 4 C2 3.34 2 2.68 2 2 C1.34 2 0.68 2 0 2 C0 1.34 0 0.68 0 0 Z " fill="#B0D76B" transform="translate(118,43)"/>
<path d="M0 0 C0.66 0 1.32 0 2 0 C5 3.46153846 5 3.46153846 5 6 C3.35 5.67 1.7 5.34 0 5 C0 3.35 0 1.7 0 0 Z " fill="#9692E7" transform="translate(244,134)"/>
<path d="M0 0 C2 2 2 2 2.1953125 4.6015625 C2.17210937 5.59929687 2.14890625 6.59703125 2.125 7.625 C2.10695313 8.62789062 2.08890625 9.63078125 2.0703125 10.6640625 C2.03550781 11.82035156 2.03550781 11.82035156 2 13 C1.34 12.34 0.68 11.68 0 11 C0 8.66666667 0 6.33333333 0 4 C-0.66 3.34 -1.32 2.68 -2 2 C-1.34 2 -0.68 2 0 2 C0 1.34 0 0.68 0 0 Z " fill="#AAA9D7" transform="translate(255,107)"/>
<path d="M0 0 C0.33 0.66 0.66 1.32 1 2 C1.99 2.33 2.98 2.66 4 3 C4 3.33 4 3.66 4 4 C1.03 4 -1.94 4 -5 4 C-4.67 3.34 -4.34 2.68 -4 2 C-2.68 2 -1.36 2 0 2 C0 1.34 0 0.68 0 0 Z " fill="#272941" transform="translate(226,89)"/>
<path d="M0 0 C0.66 0.33 1.32 0.66 2 1 C2 2.65 2 4.3 2 6 C1.01 6.33 0.02 6.66 -1 7 C-1.04254356 5.00045254 -1.04080783 2.99958364 -1 1 C-0.67 0.67 -0.34 0.34 0 0 Z " fill="#F5F6F7" transform="translate(76,81)"/>
<path d="M0 0 C2.00720923 0.28674418 4.0085944 0.61866701 6 1 C6 1.33 6 1.66 6 2 C4.35 2 2.7 2 1 2 C0.67 3.65 0.34 5.3 0 7 C-0.33 7 -0.66 7 -1 7 C-1.04254356 5.00045254 -1.04080783 2.99958364 -1 1 C-0.67 0.67 -0.34 0.34 0 0 Z " fill="#B5D879" transform="translate(144,118)"/>
<path d="M0 0 C1.98 0 3.96 0 6 0 C1.25 4 1.25 4 -1 4 C-0.67 2.68 -0.34 1.36 0 0 Z " fill="#EEEDF0" transform="translate(161,84)"/>
</svg>
